SplineFontDB: 3.0
FontName: AVHersheySimplexHeavy
FullName: AVHershey Simplex Heavy
FamilyName: AVHershey Simplex
Weight: Heavy
Copyright: Made in 2016 by Stewart C. Russell - scruss.com\n\nLicence: Dual-licensed CC0/WTFPL (srsly)\n\nDerived from character stroke coordinates by Allen V. Hershey published in "Calligraphy for Computers" (US Naval Weapons Laboratory, 1967-08-01, NWL Report No. 2101, NTIS accession number AD-662 398) and elsewhere. These coordinates were published without copyright.\n\nThe efforts of the Usenet Font Consortium (James Hurt, et al) who reformatted Hershey's data and published it to mod.sources on 1986-04-01 [Volume 4, Issue 42] are greatly appreciated.
UComments: "2016-2-6: Created with FontForge (http://fontforge.org)"
Version: 000.001
ItalicAngle: 0
UnderlinePosition: -100
UnderlineWidth: 50
Ascent: 800
Descent: 200
InvalidEm: 0
LayerCount: 2
Layer: 0 0 "Back" 1
Layer: 1 0 "Fore" 0
XUID: [1021 452 1224623327 2945786]
StyleMap: 0x0000
FSType: 0
OS2Version: 0
OS2_WeightWidthSlopeOnly: 0
OS2_UseTypoMetrics: 1
CreationTime: 1454817446
ModificationTime: 1454977059
OS2TypoAscent: 0
OS2TypoAOffset: 1
OS2TypoDescent: 0
OS2TypoDOffset: 1
OS2TypoLinegap: 90
OS2WinAscent: 0
OS2WinAOffset: 1
OS2WinDescent: 0
OS2WinDOffset: 1
HheadAscent: 0
HheadAOffset: 1
HheadDescent: 0
HheadDOffset: 1
MarkAttachClasses: 1
DEI: 91125
Encoding: ISO8859-1
UnicodeInterp: none
NameList: AGL For New Fonts
DisplaySize: -48
AntiAlias: 1
FitToEm: 1
WinInfo: 0 29 11
BeginPrivate: 0
EndPrivate
BeginChars: 260 89

StartChar: exclam
Encoding: 33 33 0
Width: 247
VWidth: 0
Flags: W
HStem: 0 21G<107 139> 580 20G<107 139>
VStem: 81 84<198 574>
LayerCount: 2
Back
Fore
SplineSet
69 96 m 1
 93 121 l 1
 107 130 l 1
 123 133 l 1
 139 130 l 1
 153 121 l 1
 177 96 l 1
 186 83 l 1
 190 67 l 1
 186 50 l 1
 177 37 l 1
 153 12 l 1
 139 3 l 1
 123 0 l 1
 107 3 l 1
 93 12 l 1
 69 37 l 1
 60 50 l 1
 56 67 l 1
 60 83 l 1
 69 96 l 1
81 214 m 1
 81 558 l 1
 84 574 l 1
 93 588 l 1
 107 597 l 1
 123 600 l 1
 139 597 l 1
 153 588 l 1
 162 574 l 1
 165 558 l 1
 165 214 l 1
 162 198 l 1
 153 184 l 1
 139 175 l 1
 123 172 l 1
 107 175 l 1
 93 184 l 1
 84 198 l 1
 81 214 l 1
EndSplineSet
EndChar

StartChar: quotedbl
Encoding: 34 34 1
Width: 393
VWidth: 0
Flags: W
HStem: 347 250
VStem: 56 84<370 574> 252 84<370 574>
LayerCount: 2
Back
Fore
SplineSet
252 386 m 1
 252 558 l 1
 255 574 l 1
 265 588 l 1
 278 597 l 1
 294 600 l 1
 310 597 l 1
 324 588 l 1
 333 574 l 1
 336 558 l 1
 336 386 l 1
 333 370 l 1
 324 356 l 1
 310 347 l 1
 294 344 l 1
 278 347 l 1
 265 356 l 1
 255 370 l 1
 252 386 l 1
56 386 m 1
 56 558 l 1
 59 574 l 1
 68 588 l 1
 82 597 l 1
 98 600 l 1
 114 597 l 1
 127 588 l 1
 137 574 l 1
 140 558 l 1
 140 386 l 1
 137 370 l 1
 127 356 l 1
 114 347 l 1
 98 344 l 1
 82 347 l 1
 68 356 l 1
 59 370 l 1
 56 386 l 1
EndSplineSet
EndChar

StartChar: numbersign
Encoding: 35 35 2
Width: 517
VWidth: 0
Flags: W
HStem: -171 21G<75 121 222 269> 147 84<58 116 221 264 368 434> 295 84<82 149 253 296 400 459>
LayerCount: 2
Back
Fore
SplineSet
58 -121 m 1
 116 147 l 1
 74 147 l 1
 58 151 l 1
 44 160 l 1
 35 173 l 1
 32 189 l 1
 35 206 l 1
 44 219 l 1
 58 228 l 1
 74 231 l 1
 135 231 l 1
 149 295 l 1
 99 295 l 1
 82 298 l 1
 69 307 l 1
 60 321 l 1
 57 337 l 1
 60 353 l 1
 69 367 l 1
 82 376 l 1
 99 379 l 1
 167 379 l 1
 230 665 l 1
 236 680 l 1
 248 692 l 1
 263 698 l 1
 280 697 l 1
 295 691 l 1
 306 679 l 1
 312 664 l 1
 312 647 l 1
 253 379 l 1
 314 379 l 1
 377 665 l 1
 384 680 l 1
 395 692 l 1
 411 698 l 1
 427 697 l 1
 442 691 l 1
 453 679 l 1
 459 664 l 1
 459 647 l 1
 400 379 l 1
 443 379 l 1
 459 376 l 1
 472 367 l 1
 481 353 l 1
 485 337 l 1
 481 321 l 1
 472 307 l 1
 459 298 l 1
 443 295 l 1
 382 295 l 1
 368 231 l 1
 418 231 l 1
 434 228 l 1
 448 219 l 1
 457 206 l 1
 460 189 l 1
 457 173 l 1
 448 160 l 1
 434 151 l 1
 418 147 l 1
 350 147 l 1
 287 -139 l 1
 280 -154 l 1
 269 -165 l 1
 253 -171 l 1
 237 -171 l 1
 222 -164 l 1
 211 -153 l 1
 205 -137 l 1
 205 -121 l 1
 264 147 l 1
 202 147 l 1
 140 -139 l 1
 133 -154 l 1
 121 -165 l 1
 106 -171 l 1
 90 -171 l 1
 75 -164 l 1
 63 -153 l 1
 57 -137 l 1
 58 -121 l 1
235 295 m 1
 221 231 l 1
 282 231 l 1
 296 295 l 1
 235 295 l 1
EndSplineSet
EndChar

StartChar: dollar
Encoding: 36 36 3
Width: 492
VWidth: 0
Flags: W
VStem: 155 84<-72 0 100 270 393 500 600 672> 253 84<-72 0 100 232 354 500 600 672> 376 84<133 180>
LayerCount: 2
Back
Fore
SplineSet
155 588 m 1
 155 656 l 1
 158 672 l 1
 167 686 l 1
 181 695 l 1
 197 698 l 1
 213 695 l 1
 227 686 l 1
 236 672 l 1
 239 656 l 1
 239 600 l 1
 253 600 l 1
 253 656 l 1
 256 672 l 1
 265 686 l 1
 279 695 l 1
 295 698 l 1
 311 695 l 1
 325 686 l 1
 334 672 l 1
 337 656 l 1
 337 588 l 1
 382 573 l 1
 399 563 l 1
 448 514 l 1
 457 500 l 1
 460 484 l 1
 457 468 l 1
 448 455 l 1
 434 445 l 1
 418 442 l 1
 402 445 l 1
 388 455 l 1
 346 497 l 1
 337 500 l 1
 337 326 l 1
 399 293 l 1
 431 257 l 1
 456 208 l 1
 460 189 l 1
 460 116 l 1
 457 100 l 1
 448 86 l 1
 399 37 l 1
 382 27 l 1
 337 12 l 1
 337 -56 l 1
 334 -72 l 1
 325 -86 l 1
 311 -95 l 1
 295 -98 l 1
 279 -95 l 1
 265 -86 l 1
 256 -72 l 1
 253 -56 l 1
 253 0 l 1
 239 0 l 1
 239 -56 l 1
 236 -72 l 1
 227 -86 l 1
 213 -95 l 1
 197 -98 l 1
 181 -95 l 1
 167 -86 l 1
 158 -72 l 1
 155 -56 l 1
 155 12 l 1
 110 27 l 1
 93 37 l 1
 44 86 l 1
 35 100 l 1
 32 116 l 1
 35 132 l 1
 44 145 l 1
 58 155 l 1
 74 158 l 1
 90 155 l 1
 104 145 l 1
 146 103 l 1
 155 100 l 1
 155 299 l 1
 93 332 l 1
 61 367 l 1
 36 416 l 1
 32 435 l 1
 32 484 l 1
 35 500 l 1
 44 514 l 1
 93 563 l 1
 110 573 l 1
 155 588 l 1
239 516 m 1
 239 359 l 1
 253 354 l 1
 253 516 l 1
 239 516 l 1
155 500 m 1
 146 497 l 1
 116 467 l 1
 116 445 l 1
 133 411 l 1
 155 393 l 1
 155 500 l 1
239 84 m 1
 253 84 l 1
 253 266 l 1
 239 270 l 1
 239 84 l 1
337 232 m 1
 337 100 l 1
 346 103 l 1
 376 133 l 1
 376 180 l 1
 359 214 l 1
 337 232 l 1
EndSplineSet
EndChar

StartChar: ampersand
Encoding: 38 38 4
Width: 639
VWidth: 0
Flags: W
HStem: 0 84<181 260 501 523> 408 20G<499 556> 580 20G<251 289>
VStem: 31 84<150 180> 154 84<442 474> 302 84<445 474>
LayerCount: 2
Back
Fore
SplineSet
182 346 m 1
 154 435 l 1
 154 484 l 1
 159 503 l 1
 191 563 l 1
 251 596 l 1
 270 600 l 1
 289 596 l 1
 349 563 l 1
 381 503 l 1
 386 484 l 1
 386 435 l 1
 381 416 l 1
 349 356 l 1
 324 332 l 1
 301 317 l 1
 379 207 l 1
 427 328 l 1
 461 391 l 1
 486 416 l 1
 499 425 l 1
 540 428 l 1
 556 425 l 1
 570 416 l 1
 594 391 l 1
 604 378 l 1
 607 337 l 1
 604 321 l 1
 594 307 l 1
 581 298 l 1
 565 295 l 1
 549 298 l 1
 535 307 l 1
 526 321 l 1
 524 333 l 1
 505 295 l 1
 456 174 l 1
 432 136 l 1
 467 101 l 1
 501 84 l 1
 523 84 l 1
 526 107 l 1
 535 121 l 1
 549 130 l 1
 565 133 l 1
 581 130 l 1
 594 121 l 1
 604 107 l 1
 607 91 l 1
 604 50 l 1
 594 37 l 1
 570 12 l 1
 556 3 l 1
 540 0 l 1
 491 0 l 1
 472 4 l 1
 423 29 l 1
 380 69 l 1
 338 29 l 1
 289 4 l 1
 270 0 l 1
 172 0 l 1
 153 4 l 1
 93 37 l 1
 60 72 l 1
 36 122 l 1
 31 140 l 1
 31 189 l 1
 36 208 l 1
 60 257 l 1
 93 293 l 1
 182 346 l 1
256 388 m 1
 269 395 l 1
 284 411 l 1
 302 445 l 1
 302 474 l 1
 288 502 l 1
 270 511 l 1
 252 502 l 1
 238 474 l 1
 238 442 l 1
 256 388 l 1
228 275 m 1
 148 229 l 1
 132 214 l 1
 115 180 l 1
 115 150 l 1
 132 116 l 1
 147 101 l 1
 181 84 l 1
 260 84 l 1
 294 101 l 1
 328 135 l 1
 228 275 l 1
EndSplineSet
EndChar

StartChar: quotesingle
Encoding: 39 39 5
Width: 196
VWidth: 0
Flags: W
HStem: 347 250
VStem: 56 84<370 574>
LayerCount: 2
Back
Fore
SplineSet
56 386 m 1
 56 558 l 1
 59 574 l 1
 68 588 l 1
 82 597 l 1
 98 600 l 1
 114 597 l 1
 128 588 l 1
 137 574 l 1
 140 558 l 1
 140 386 l 1
 137 370 l 1
 128 356 l 1
 114 347 l 1
 98 344 l 1
 82 347 l 1
 68 356 l 1
 59 370 l 1
 56 386 l 1
EndSplineSet
EndChar

StartChar: parenleft
Encoding: 40 40 6
Width: 344
VWidth: 0
Flags: W
HStem: -172 21G<254 286>
VStem: 56 84<183.609 342.391>
LayerCount: 2
Back
Fore
SplineSet
191 637 m 1
 241 686 l 1
 254 695 l 1
 270 698 l 1
 286 695 l 1
 300 686 l 1
 309 672 l 1
 312 656 l 1
 309 640 l 1
 300 627 l 1
 254 580 l 1
 208 512 l 1
 163 421 l 1
 140 308 l 1
 140 218 l 1
 163 105 l 1
 208 14 l 1
 254 -54 l 1
 300 -100 l 1
 309 -114 l 1
 312 -130 l 1
 309 -146 l 1
 300 -160 l 1
 286 -169 l 1
 270 -172 l 1
 254 -169 l 1
 241 -160 l 1
 191 -111 l 1
 134 -26 l 1
 82 83 l 1
 56 214 l 1
 57 321 l 1
 82 443 l 1
 134 552 l 1
 191 637 l 1
EndSplineSet
EndChar

StartChar: parenright
Encoding: 41 41 7
Width: 344
VWidth: 0
Flags: W
HStem: -172 21G<57 89>
VStem: 203 84<183.609 342.391>
LayerCount: 2
Back
Fore
SplineSet
89 580 m 1
 43 627 l 1
 34 640 l 1
 31 656 l 1
 34 672 l 1
 43 686 l 1
 57 695 l 1
 73 698 l 1
 89 695 l 1
 102 686 l 1
 152 637 l 1
 206 557 l 1
 258 454 l 1
 286 321 l 1
 287 214 l 1
 261 83 l 1
 209 -26 l 1
 152 -111 l 1
 102 -160 l 1
 89 -169 l 1
 73 -172 l 1
 57 -169 l 1
 43 -160 l 1
 34 -146 l 1
 31 -130 l 1
 34 -114 l 1
 43 -100 l 1
 89 -54 l 1
 135 14 l 1
 180 105 l 1
 203 218 l 1
 203 308 l 1
 180 421 l 1
 135 512 l 1
 89 580 l 1
EndSplineSet
EndChar

StartChar: asterisk
Encoding: 42 42 8
Width: 393
VWidth: 0
Flags: W
VStem: 154 84<100 189 337 427>
LayerCount: 2
Back
Fore
SplineSet
52 225 m 1
 114 263 l 1
 52 301 l 1
 39 312 l 1
 32 327 l 1
 32 343 l 1
 37 358 l 1
 48 371 l 1
 63 378 l 1
 79 378 l 1
 95 373 l 1
 154 337 l 1
 154 411 l 1
 157 427 l 1
 166 440 l 1
 180 449 l 1
 196 453 l 1
 212 449 l 1
 226 440 l 1
 235 427 l 1
 238 411 l 1
 238 337 l 1
 297 373 l 1
 313 378 l 1
 329 378 l 1
 344 371 l 1
 355 358 l 1
 360 343 l 1
 360 327 l 1
 353 312 l 1
 340 301 l 1
 278 263 l 1
 340 225 l 1
 353 214 l 1
 360 200 l 1
 360 183 l 1
 355 168 l 1
 344 156 l 1
 329 149 l 1
 313 148 l 1
 297 153 l 1
 238 189 l 1
 238 116 l 1
 235 100 l 1
 226 86 l 1
 212 77 l 1
 196 74 l 1
 180 77 l 1
 166 86 l 1
 157 100 l 1
 154 116 l 1
 154 189 l 1
 95 153 l 1
 79 148 l 1
 63 149 l 1
 48 156 l 1
 37 168 l 1
 32 183 l 1
 32 200 l 1
 39 214 l 1
 52 225 l 1
EndSplineSet
EndChar

StartChar: plus
Encoding: 43 43 9
Width: 637
VWidth: 0
Flags: W
HStem: 0 21G<302 334> 221 84<81 276 360 555>
VStem: 276 84<26 221 305 500>
LayerCount: 2
Back
Fore
SplineSet
276 305 m 1
 276 484 l 1
 279 500 l 1
 288 514 l 1
 302 523 l 1
 318 526 l 1
 334 523 l 1
 348 514 l 1
 357 500 l 1
 360 484 l 1
 360 305 l 1
 539 305 l 1
 555 302 l 1
 569 293 l 1
 578 279 l 1
 581 263 l 1
 578 247 l 1
 569 233 l 1
 555 224 l 1
 539 221 l 1
 360 221 l 1
 360 42 l 1
 357 26 l 1
 348 12 l 1
 334 3 l 1
 318 0 l 1
 302 3 l 1
 288 12 l 1
 279 26 l 1
 276 42 l 1
 276 221 l 1
 97 221 l 1
 81 224 l 1
 67 233 l 1
 58 247 l 1
 55 263 l 1
 58 279 l 1
 67 293 l 1
 81 302 l 1
 97 305 l 1
 276 305 l 1
EndSplineSet
EndChar

StartChar: comma
Encoding: 44 44 10
Width: 247
VWidth: 0
Flags: W
HStem: -95 225
VStem: 56 134
LayerCount: 2
Back
Fore
SplineSet
177 96 m 1
 186 83 l 1
 190 67 l 1
 190 17 l 1
 185 -1 l 1
 161 -50 l 1
 128 -86 l 1
 115 -95 l 1
 98 -98 l 1
 82 -95 l 1
 69 -86 l 1
 60 -72 l 1
 56 -56 l 1
 60 -40 l 1
 69 -27 l 1
 88 -7 l 1
 97 10 l 1
 69 37 l 1
 60 50 l 1
 56 67 l 1
 60 83 l 1
 69 96 l 1
 93 121 l 1
 107 130 l 1
 123 133 l 1
 139 130 l 1
 153 121 l 1
 177 96 l 1
EndSplineSet
EndChar

StartChar: hyphen
Encoding: 45 45 11
Width: 637
VWidth: 0
Flags: W
HStem: 221 84<81 555>
LayerCount: 2
Back
Fore
SplineSet
539 221 m 1
 97 221 l 1
 81 224 l 1
 67 233 l 1
 58 247 l 1
 55 263 l 1
 58 279 l 1
 67 293 l 1
 81 302 l 1
 97 305 l 1
 539 305 l 1
 555 302 l 1
 569 293 l 1
 578 279 l 1
 581 263 l 1
 578 247 l 1
 569 233 l 1
 555 224 l 1
 539 221 l 1
EndSplineSet
EndChar

StartChar: period
Encoding: 46 46 12
Width: 247
VWidth: 0
Flags: W
HStem: 3 127
VStem: 56 134
LayerCount: 2
Back
Fore
SplineSet
69 96 m 1
 93 121 l 1
 107 130 l 1
 123 133 l 1
 139 130 l 1
 153 121 l 1
 177 96 l 1
 186 83 l 1
 190 67 l 1
 186 50 l 1
 177 37 l 1
 153 12 l 1
 139 3 l 1
 123 0 l 1
 107 3 l 1
 93 12 l 1
 69 37 l 1
 60 50 l 1
 56 67 l 1
 60 83 l 1
 69 96 l 1
EndSplineSet
EndChar

StartChar: slash
Encoding: 47 47 13
Width: 541
VWidth: 0
Flags: W
HStem: -172 21G<28 60>
LayerCount: 2
Back
Fore
SplineSet
12 -109 m 1
 455 677 l 1
 465 689 l 1
 480 697 l 1
 496 698 l 1
 512 693 l 1
 524 682 l 1
 532 668 l 1
 533 651 l 1
 528 636 l 1
 85 -151 l 1
 75 -163 l 1
 60 -170 l 1
 44 -172 l 1
 28 -167 l 1
 16 -156 l 1
 8 -141 l 1
 7 -125 l 1
 12 -109 l 1
EndSplineSet
EndChar

StartChar: zero
Encoding: 48 48 14
Width: 491
VWidth: 0
Flags: W
HStem: 0 84<227 263> 516 84<227 263>
VStem: 32 83<232 368> 375 84<232 368>
LayerCount: 2
Back
Fore
SplineSet
133 573 m 1
 207 598 l 1
 270 600 l 1
 357 573 l 1
 369 567 l 1
 378 557 l 1
 427 483 l 1
 434 468 l 1
 458 345 l 1
 459 263 l 1
 434 132 l 1
 427 117 l 1
 369 33 l 1
 283 2 l 1
 220 0 l 1
 207 2 l 1
 121 33 l 1
 63 117 l 1
 56 132 l 1
 32 255 l 1
 32 345 l 1
 56 468 l 1
 63 483 l 1
 112 557 l 1
 121 567 l 1
 133 573 l 1
227 516 m 1
 174 498 l 1
 137 443 l 1
 115 333 l 1
 115 267 l 1
 137 157 l 1
 174 102 l 1
 227 84 l 1
 263 84 l 1
 316 102 l 1
 353 157 l 1
 375 267 l 1
 375 333 l 1
 353 443 l 1
 316 498 l 1
 263 516 l 1
 227 516 l 1
EndSplineSet
EndChar

StartChar: one
Encoding: 49 49 15
Width: 492
VWidth: 0
Flags: W
HStem: 0 21G<253 286> 580 20G<253 286>
VStem: 228 84<26 457>
LayerCount: 2
Back
Fore
SplineSet
215 447 m 1
 165 422 l 1
 150 418 l 1
 133 420 l 1
 119 428 l 1
 109 441 l 1
 105 457 l 1
 107 473 l 1
 115 487 l 1
 128 497 l 1
 171 519 l 1
 240 588 l 1
 253 597 l 1
 270 600 l 1
 286 597 l 1
 299 588 l 1
 308 574 l 1
 312 558 l 1
 312 42 l 1
 308 26 l 1
 299 12 l 1
 286 3 l 1
 270 0 l 1
 253 3 l 1
 240 12 l 1
 231 26 l 1
 228 42 l 1
 228 457 l 1
 215 447 l 1
EndSplineSet
EndChar

StartChar: two
Encoding: 50 50 16
Width: 492
VWidth: 0
Flags: W
HStem: 0 84<175 434> 516 84<207 285>
VStem: 351 84<420 450>
LayerCount: 2
Back
Fore
SplineSet
141 450 m 1
 137 419 l 1
 128 405 l 1
 115 396 l 1
 99 393 l 1
 82 396 l 1
 69 405 l 1
 60 419 l 1
 57 460 l 1
 61 478 l 1
 86 528 l 1
 118 563 l 1
 178 596 l 1
 197 600 l 1
 295 600 l 1
 314 596 l 1
 374 563 l 1
 406 528 l 1
 431 478 l 1
 435 460 l 1
 435 411 l 1
 431 392 l 1
 406 343 l 1
 349 258 l 1
 175 84 l 1
 418 84 l 1
 434 81 l 1
 448 72 l 1
 457 58 l 1
 460 42 l 1
 457 26 l 1
 448 12 l 1
 434 3 l 1
 418 0 l 1
 74 0 l 1
 58 3 l 1
 44 12 l 1
 35 26 l 1
 32 42 l 1
 35 58 l 1
 44 72 l 1
 287 314 l 1
 332 383 l 1
 351 420 l 1
 351 450 l 1
 334 484 l 1
 319 499 l 1
 285 516 l 1
 207 516 l 1
 173 499 l 1
 158 484 l 1
 141 450 l 1
EndSplineSet
EndChar

StartChar: three
Encoding: 51 51 17
Width: 492
VWidth: 0
Flags: W
HStem: 0 84<184 285.368> 516 84<107 309>
VStem: 376 84<174.632 252>
LayerCount: 2
Back
Fore
SplineSet
309 516 m 1
 123 516 l 1
 107 519 l 1
 93 528 l 1
 84 542 l 1
 81 558 l 1
 84 574 l 1
 93 588 l 1
 107 597 l 1
 123 600 l 1
 393 600 l 1
 409 597 l 1
 422 589 l 1
 431 577 l 1
 435 562 l 1
 434 547 l 1
 427 533 l 1
 328 401 l 1
 338 399 l 1
 399 367 l 1
 423 342 l 1
 433 326 l 1
 458 252 l 1
 460 189 l 1
 433 102 l 1
 423 86 l 1
 374 37 l 1
 358 27 l 1
 271 0 l 1
 184 2 l 1
 110 27 l 1
 93 37 l 1
 69 61 l 1
 36 122 l 1
 32 137 l 1
 34 154 l 1
 42 168 l 1
 55 178 l 1
 71 182 l 1
 87 180 l 1
 102 172 l 1
 112 159 l 1
 133 116 l 1
 146 103 l 1
 204 84 l 1
 264 84 l 1
 322 103 l 1
 357 138 l 1
 376 196 l 1
 376 232 l 1
 357 290 l 1
 344 302 l 1
 310 319 l 1
 246 319 l 1
 231 322 l 1
 218 330 l 1
 208 343 l 1
 204 357 l 1
 206 373 l 1
 212 387 l 1
 309 516 l 1
EndSplineSet
EndChar

StartChar: four
Encoding: 52 52 18
Width: 493
VWidth: 0
Flags: W
HStem: 0 21G<304 336> 172 84<156 278 362 459> 580 20G<304 336>
VStem: 278 84<26 172 256 427>
LayerCount: 2
Back
Fore
SplineSet
40 238 m 1
 290 588 l 1
 304 597 l 1
 320 600 l 1
 336 597 l 1
 349 588 l 1
 359 574 l 1
 362 558 l 1
 362 256 l 1
 443 256 l 1
 459 253 l 1
 472 244 l 1
 481 230 l 1
 485 214 l 1
 481 198 l 1
 472 184 l 1
 459 175 l 1
 443 172 l 1
 362 172 l 1
 362 42 l 1
 359 26 l 1
 349 12 l 1
 336 3 l 1
 320 0 l 1
 304 3 l 1
 290 12 l 1
 281 26 l 1
 278 42 l 1
 278 172 l 1
 74 172 l 1
 59 175 l 1
 46 183 l 1
 37 195 l 1
 32 209 l 1
 33 225 l 1
 40 238 l 1
278 427 m 1
 156 256 l 1
 278 256 l 1
 278 427 l 1
EndSplineSet
EndChar

StartChar: five
Encoding: 53 53 19
Width: 492
VWidth: 0
Flags: W
HStem: 0 84<184 285.368> 344 84<182.632 284> 516 84<161 385>
VStem: 376 84<176 252>
LayerCount: 2
Back
Fore
SplineSet
123 600 m 1
 369 600 l 1
 385 597 l 1
 399 588 l 1
 408 574 l 1
 411 558 l 1
 408 542 l 1
 399 528 l 1
 385 519 l 1
 369 516 l 1
 161 516 l 1
 149 414 l 1
 197 428 l 1
 284 426 l 1
 358 401 l 1
 374 391 l 1
 423 342 l 1
 433 326 l 1
 458 252 l 1
 460 189 l 1
 458 176 l 1
 433 102 l 1
 423 86 l 1
 374 37 l 1
 358 27 l 1
 271 0 l 1
 184 2 l 1
 110 27 l 1
 93 37 l 1
 61 72 l 1
 36 122 l 1
 32 137 l 1
 34 154 l 1
 42 168 l 1
 55 178 l 1
 71 182 l 1
 87 180 l 1
 102 172 l 1
 112 159 l 1
 133 116 l 1
 146 103 l 1
 204 84 l 1
 264 84 l 1
 322 103 l 1
 357 138 l 1
 376 196 l 1
 376 232 l 1
 357 290 l 1
 322 325 l 1
 264 344 l 1
 204 344 l 1
 146 325 l 1
 128 307 l 1
 114 298 l 1
 97 295 l 1
 80 299 l 1
 67 309 l 1
 58 324 l 1
 57 341 l 1
 81 563 l 1
 86 577 l 1
 95 589 l 1
 108 597 l 1
 123 600 l 1
EndSplineSet
EndChar

StartChar: six
Encoding: 54 54 20
Width: 491
VWidth: 0
Flags: W
HStem: 0 21G<232 283> 516 84<252 287>
LayerCount: 2
Back
Fore
SplineSet
56 212 m 1
 56 337 l 1
 81 468 l 1
 87 483 l 1
 146 567 l 1
 232 598 l 1
 294 600 l 1
 381 573 l 1
 395 565 l 1
 405 552 l 1
 430 503 l 1
 434 487 l 1
 432 471 l 1
 424 457 l 1
 411 447 l 1
 395 442 l 1
 379 444 l 1
 365 453 l 1
 355 466 l 1
 338 499 l 1
 287 516 l 1
 252 516 l 1
 198 498 l 1
 162 443 l 1
 147 370 l 1
 158 377 l 1
 232 401 l 1
 270 403 l 1
 283 401 l 1
 357 377 l 1
 373 367 l 1
 422 317 l 1
 432 301 l 1
 457 227 l 1
 459 189 l 1
 432 102 l 1
 422 86 l 1
 373 37 l 1
 357 27 l 1
 283 2 l 1
 245 0 l 1
 232 2 l 1
 158 27 l 1
 142 37 l 1
 92 86 l 1
 81 106 l 1
 56 212 l 1
141 212 m 1
 160 137 l 1
 194 103 l 1
 252 84 l 1
 263 84 l 1
 321 103 l 1
 356 138 l 1
 375 196 l 1
 375 207 l 1
 356 265 l 1
 321 300 l 1
 263 319 l 1
 252 319 l 1
 194 300 l 1
 159 265 l 1
 141 212 l 1
EndSplineSet
EndChar

StartChar: seven
Encoding: 55 55 21
Width: 492
VWidth: 0
Flags: W
HStem: 0 21G<154 186> 516 84<58 351>
LayerCount: 2
Back
Fore
SplineSet
134 60 m 1
 351 516 l 1
 74 516 l 1
 58 519 l 1
 44 528 l 1
 35 542 l 1
 32 558 l 1
 35 574 l 1
 44 588 l 1
 58 597 l 1
 74 600 l 1
 418 600 l 1
 436 596 l 1
 449 586 l 1
 457 574 l 1
 460 558 l 1
 457 542 l 1
 210 24 l 1
 200 11 l 1
 186 2 l 1
 170 0 l 1
 154 4 l 1
 141 14 l 1
 133 28 l 1
 130 44 l 1
 134 60 l 1
EndSplineSet
EndChar

StartChar: eight
Encoding: 56 56 22
Width: 492
VWidth: 0
Flags: W
HStem: 0 84<184 309.368> 516 84<204 288>
VStem: 32 84<150 204> 57 84<445 474> 351 84<445 474> 376 84<150 204>
LayerCount: 2
Back
Fore
SplineSet
110 573 m 1xd0
 197 600 l 1
 308 598 l 1
 382 573 l 1
 396 565 l 1
 406 552 l 1
 431 503 l 1
 435 484 l 1
 435 435 l 1xd8
 431 416 l 1
 399 356 l 1
 374 342 l 1
 423 293 l 1
 456 233 l 1
 460 214 l 1
 460 140 l 1
 456 122 l 1
 431 72 l 1
 399 37 l 1
 382 27 l 1
 295 0 l 1
 184 2 l 1
 110 27 l 1
 93 37 l 1
 61 72 l 1
 36 122 l 1
 32 140 l 1
 32 214 l 1xe4
 36 233 l 1
 69 293 l 1
 118 342 l 1
 93 356 l 1
 86 367 l 1
 61 416 l 1
 57 435 l 1
 57 484 l 1
 61 503 l 1
 86 552 l 1
 96 565 l 1
 110 573 l 1xd0
204 516 m 1
 153 499 l 1
 141 474 l 1
 141 445 l 1
 154 417 l 1
 187 401 l 1
 246 386 l 1
 305 401 l 1
 338 417 l 1
 351 445 l 1
 351 474 l 1
 339 499 l 1
 288 516 l 1
 204 516 l 1
246 300 m 1
 170 276 l 1
 133 238 l 1
 116 204 l 1
 116 150 l 1
 133 116 l 1
 146 103 l 1
 204 84 l 1
 288 84 l 1
 346 103 l 1
 359 116 l 1
 376 150 l 1
 376 204 l 1xe4
 359 238 l 1
 322 276 l 1
 246 300 l 1
EndSplineSet
EndChar

StartChar: nine
Encoding: 57 57 23
Width: 492
VWidth: 0
Flags: W
HStem: 0 84<204 239> 580 20G<208 259>
LayerCount: 2
Back
Fore
SplineSet
435 391 m 1
 435 263 l 1
 410 132 l 1
 404 117 l 1
 345 33 l 1
 259 2 l 1
 197 0 l 1
 110 27 l 1
 96 35 l 1
 86 48 l 1
 61 97 l 1
 57 113 l 1
 59 129 l 1
 67 143 l 1
 80 153 l 1
 96 158 l 1
 112 156 l 1
 126 147 l 1
 136 134 l 1
 153 101 l 1
 204 84 l 1
 239 84 l 1
 293 102 l 1
 329 157 l 1
 344 230 l 1
 333 223 l 1
 259 199 l 1
 221 197 l 1
 208 199 l 1
 134 223 l 1
 118 233 l 1
 69 283 l 1
 59 299 l 1
 34 373 l 1
 32 411 l 1
 59 498 l 1
 69 514 l 1
 118 563 l 1
 134 573 l 1
 208 598 l 1
 246 600 l 1
 259 598 l 1
 333 573 l 1
 349 563 l 1
 399 514 l 1
 410 494 l 1
 435 391 l 1
332 335 m 1
 350 388 l 1
 331 463 l 1
 297 497 l 1
 239 516 l 1
 228 516 l 1
 170 497 l 1
 135 462 l 1
 116 404 l 1
 116 393 l 1
 135 335 l 1
 170 300 l 1
 228 281 l 1
 239 281 l 1
 297 300 l 1
 332 335 l 1
EndSplineSet
EndChar

StartChar: colon
Encoding: 58 58 24
Width: 247
VWidth: 0
Flags: W
HStem: 0 21G<107 139> 408 20G<107 139>
VStem: 56 134
LayerCount: 2
Back
Fore
SplineSet
69 96 m 1
 93 121 l 1
 107 130 l 1
 123 133 l 1
 139 130 l 1
 153 121 l 1
 177 96 l 1
 186 83 l 1
 190 67 l 1
 186 50 l 1
 177 37 l 1
 153 12 l 1
 139 3 l 1
 123 0 l 1
 107 3 l 1
 93 12 l 1
 69 37 l 1
 60 50 l 1
 56 67 l 1
 60 83 l 1
 69 96 l 1
69 391 m 1
 93 416 l 1
 107 425 l 1
 123 428 l 1
 139 425 l 1
 153 416 l 1
 177 391 l 1
 186 378 l 1
 190 361 l 1
 186 345 l 1
 177 332 l 1
 153 307 l 1
 139 298 l 1
 123 295 l 1
 107 298 l 1
 93 307 l 1
 69 332 l 1
 60 345 l 1
 56 361 l 1
 60 378 l 1
 69 391 l 1
EndSplineSet
EndChar

StartChar: semicolon
Encoding: 59 59 25
Width: 247
VWidth: 0
Flags: W
HStem: 408 20G<107 139>
VStem: 56 134
LayerCount: 2
Back
Fore
SplineSet
69 391 m 1
 93 416 l 1
 107 425 l 1
 123 428 l 1
 139 425 l 1
 153 416 l 1
 177 391 l 1
 186 378 l 1
 190 361 l 1
 186 345 l 1
 177 332 l 1
 153 307 l 1
 139 298 l 1
 123 295 l 1
 107 298 l 1
 93 307 l 1
 69 332 l 1
 60 345 l 1
 56 361 l 1
 60 378 l 1
 69 391 l 1
177 96 m 1
 186 83 l 1
 190 67 l 1
 190 17 l 1
 185 -1 l 1
 161 -50 l 1
 128 -86 l 1
 115 -95 l 1
 98 -98 l 1
 82 -95 l 1
 69 -86 l 1
 60 -72 l 1
 56 -56 l 1
 60 -40 l 1
 69 -27 l 1
 88 -7 l 1
 97 10 l 1
 69 37 l 1
 60 50 l 1
 56 67 l 1
 60 83 l 1
 69 96 l 1
 93 121 l 1
 107 130 l 1
 123 133 l 1
 139 130 l 1
 153 121 l 1
 177 96 l 1
EndSplineSet
EndChar

StartChar: equal
Encoding: 61 61 26
Width: 637
VWidth: 0
Flags: W
HStem: 147 84<81 555> 295 84<81 555>
LayerCount: 2
Back
Fore
SplineSet
539 295 m 1
 97 295 l 1
 81 298 l 1
 67 307 l 1
 58 321 l 1
 55 337 l 1
 58 353 l 1
 67 367 l 1
 81 376 l 1
 97 379 l 1
 539 379 l 1
 555 376 l 1
 569 367 l 1
 578 353 l 1
 581 337 l 1
 578 321 l 1
 569 307 l 1
 555 298 l 1
 539 295 l 1
539 147 m 1
 97 147 l 1
 81 151 l 1
 67 160 l 1
 58 173 l 1
 55 189 l 1
 58 206 l 1
 67 219 l 1
 81 228 l 1
 97 231 l 1
 539 231 l 1
 555 228 l 1
 569 219 l 1
 578 206 l 1
 581 189 l 1
 578 173 l 1
 569 160 l 1
 555 151 l 1
 539 147 l 1
EndSplineSet
EndChar

StartChar: question
Encoding: 63 63 27
Width: 441
VWidth: 0
Flags: W
HStem: 0 21G<204 236> 516 84<181 259>
VStem: 178 84<198 262> 325 84<420 450>
LayerCount: 2
Back
Fore
SplineSet
115 450 m 1
 111 419 l 1
 102 405 l 1
 89 396 l 1
 73 393 l 1
 56 396 l 1
 43 405 l 1
 34 419 l 1
 31 460 l 1
 35 478 l 1
 67 539 l 1
 103 571 l 1
 152 596 l 1
 171 600 l 1
 269 600 l 1
 288 596 l 1
 337 571 l 1
 373 539 l 1
 405 478 l 1
 409 460 l 1
 409 411 l 1
 405 392 l 1
 380 343 l 1
 373 332 l 1
 337 299 l 1
 262 262 l 1
 262 214 l 1
 259 198 l 1
 250 184 l 1
 236 175 l 1
 220 172 l 1
 204 175 l 1
 190 184 l 1
 181 198 l 1
 178 214 l 1
 178 288 l 1
 181 303 l 1
 189 316 l 1
 201 325 l 1
 293 371 l 1
 308 386 l 1
 325 420 l 1
 325 450 l 1
 308 484 l 1
 293 499 l 1
 259 516 l 1
 181 516 l 1
 147 499 l 1
 132 484 l 1
 115 450 l 1
166 96 m 1
 190 121 l 1
 204 130 l 1
 220 133 l 1
 236 130 l 1
 250 121 l 1
 274 96 l 1
 283 83 l 1
 287 67 l 1
 283 50 l 1
 274 37 l 1
 250 12 l 1
 236 3 l 1
 220 0 l 1
 204 3 l 1
 190 12 l 1
 166 37 l 1
 157 50 l 1
 153 67 l 1
 157 83 l 1
 166 96 l 1
EndSplineSet
EndChar

StartChar: A
Encoding: 65 65 28
Width: 443
VWidth: 0
Flags: W
HStem: 0 21G<9 42 400 433> 172 84<151 291> 580 20G<206 238>
LayerCount: 2
Back
Fore
SplineSet
-15 57 m 1
 183 575 l 1
 192 589 l 1
 206 597 l 1
 222 600 l 1
 238 596 l 1
 252 587 l 1
 260 573 l 1
 457 57 l 1
 460 41 l 1
 456 25 l 1
 446 11 l 1
 433 3 l 1
 416 0 l 1
 400 4 l 1
 387 13 l 1
 378 27 l 1
 323 172 l 1
 119 172 l 1
 64 27 l 1
 55 13 l 1
 42 4 l 1
 26 0 l 1
 9 3 l 1
 -4 11 l 1
 -14 25 l 1
 -18 41 l 1
 -15 57 l 1
221 440 m 1
 151 256 l 1
 291 256 l 1
 221 440 l 1
EndSplineSet
EndChar

StartChar: B
Encoding: 66 66 29
Width: 516
VWidth: 0
Flags: W
HStem: 0 84<140 333.368> 270 84<140 312> 516 84<140 333.368>
VStem: 56 84<84 270 354 516> 400 84<150 204 420 450>
LayerCount: 2
Back
Fore
SplineSet
56 558 m 1
 59 574 l 1
 68 588 l 1
 82 597 l 1
 98 600 l 1
 319 600 l 1
 406 573 l 1
 423 563 l 1
 455 528 l 1
 480 478 l 1
 484 460 l 1
 484 411 l 1
 480 392 l 1
 455 343 l 1
 428 312 l 1
 455 282 l 1
 480 233 l 1
 484 214 l 1
 484 140 l 1
 480 122 l 1
 455 72 l 1
 423 37 l 1
 406 27 l 1
 319 0 l 1
 98 0 l 1
 82 3 l 1
 68 12 l 1
 59 26 l 1
 56 42 l 1
 56 558 l 1
140 516 m 1
 140 354 l 1
 312 354 l 1
 370 374 l 1
 383 386 l 1
 400 420 l 1
 400 450 l 1
 383 484 l 1
 370 497 l 1
 312 516 l 1
 140 516 l 1
140 84 m 1
 312 84 l 1
 370 103 l 1
 383 116 l 1
 400 150 l 1
 400 204 l 1
 383 238 l 1
 370 251 l 1
 312 270 l 1
 140 270 l 1
 140 84 l 1
EndSplineSet
EndChar

StartChar: C
Encoding: 67 67 30
Width: 516
VWidth: 0
Flags: W
HStem: 0 84<231 310> 516 84<231 310>
VStem: 32 84<223.667 375>
LayerCount: 2
Back
Fore
SplineSet
456 503 m 1
 480 454 l 1
 484 438 l 1
 482 422 l 1
 474 408 l 1
 461 398 l 1
 446 393 l 1
 429 395 l 1
 415 403 l 1
 405 416 l 1
 383 459 l 1
 344 499 l 1
 310 516 l 1
 231 516 l 1
 197 499 l 1
 158 459 l 1
 137 419 l 1
 116 355 l 1
 116 245 l 1
 137 181 l 1
 158 141 l 1
 197 101 l 1
 231 84 l 1
 310 84 l 1
 344 101 l 1
 383 141 l 1
 405 184 l 1
 415 197 l 1
 429 205 l 1
 446 207 l 1
 461 202 l 1
 474 192 l 1
 482 178 l 1
 484 162 l 1
 480 146 l 1
 448 86 l 1
 399 37 l 1
 338 4 l 1
 320 0 l 1
 221 0 l 1
 203 4 l 1
 154 29 l 1
 143 37 l 1
 86 97 l 1
 59 152 l 1
 32 239 l 1
 34 375 l 1
 59 448 l 1
 86 503 l 1
 143 563 l 1
 203 596 l 1
 221 600 l 1
 320 600 l 1
 338 596 l 1
 388 571 l 1
 399 563 l 1
 456 503 l 1
EndSplineSet
EndChar

StartChar: D
Encoding: 68 68 31
Width: 516
VWidth: 0
Flags: W
HStem: 0 84<140 284.368> 516 84<140 284.368>
VStem: 56 84<84 516> 400 84<223.667 375>
LayerCount: 2
Back
Fore
SplineSet
56 558 m 1
 59 574 l 1
 68 588 l 1
 82 597 l 1
 98 600 l 1
 270 600 l 1
 357 573 l 1
 373 563 l 1
 430 503 l 1
 457 448 l 1
 482 375 l 1
 484 239 l 1
 457 152 l 1
 430 97 l 1
 373 37 l 1
 357 27 l 1
 270 0 l 1
 98 0 l 1
 82 3 l 1
 68 12 l 1
 59 26 l 1
 56 42 l 1
 56 558 l 1
140 516 m 1
 140 84 l 1
 263 84 l 1
 321 103 l 1
 358 141 l 1
 379 181 l 1
 400 245 l 1
 400 355 l 1
 379 419 l 1
 358 459 l 1
 321 497 l 1
 263 516 l 1
 140 516 l 1
EndSplineSet
EndChar

StartChar: E
Encoding: 69 69 32
Width: 466
VWidth: 0
Flags: W
HStem: 0 84<140 433> 270 84<140 310> 516 84<140 433>
VStem: 56 84<84 270 354 516>
LayerCount: 2
Back
Fore
SplineSet
56 558 m 1
 59 574 l 1
 68 588 l 1
 81 597 l 1
 98 600 l 1
 417 600 l 1
 433 597 l 1
 447 588 l 1
 456 574 l 1
 459 558 l 1
 456 542 l 1
 447 528 l 1
 433 519 l 1
 417 516 l 1
 140 516 l 1
 140 354 l 1
 294 354 l 1
 310 351 l 1
 324 342 l 1
 333 328 l 1
 336 312 l 1
 333 296 l 1
 324 283 l 1
 310 273 l 1
 294 270 l 1
 140 270 l 1
 140 84 l 1
 417 84 l 1
 433 81 l 1
 447 72 l 1
 456 58 l 1
 459 42 l 1
 456 26 l 1
 447 12 l 1
 433 3 l 1
 417 0 l 1
 98 0 l 1
 81 3 l 1
 68 12 l 1
 59 26 l 1
 56 42 l 1
 56 558 l 1
EndSplineSet
EndChar

StartChar: F
Encoding: 70 70 33
Width: 442
VWidth: 0
Flags: W
HStem: 0 21G<81 114> 270 84<140 310> 516 84<140 433>
VStem: 56 84<26 270 354 516>
LayerCount: 2
Back
Fore
SplineSet
56 558 m 1
 59 574 l 1
 68 588 l 1
 81 597 l 1
 98 600 l 1
 417 600 l 1
 433 597 l 1
 447 588 l 1
 456 574 l 1
 459 558 l 1
 456 542 l 1
 447 528 l 1
 433 519 l 1
 417 516 l 1
 140 516 l 1
 140 354 l 1
 294 354 l 1
 310 351 l 1
 324 342 l 1
 333 328 l 1
 336 312 l 1
 333 296 l 1
 324 283 l 1
 310 273 l 1
 294 270 l 1
 140 270 l 1
 140 42 l 1
 136 26 l 1
 127 12 l 1
 114 3 l 1
 98 0 l 1
 81 3 l 1
 68 12 l 1
 59 26 l 1
 56 42 l 1
 56 558 l 1
EndSplineSet
EndChar

StartChar: G
Encoding: 71 71 34
Width: 517
VWidth: 0
Flags: W
HStem: 0 84<231 310> 197 84<304 401> 516 84<231 310>
VStem: 34 82<225 376.333>
LayerCount: 2
Back
Fore
SplineSet
401 197 m 1
 320 197 l 1
 304 200 l 1
 290 209 l 1
 281 222 l 1
 278 239 l 1
 281 255 l 1
 290 268 l 1
 304 277 l 1
 320 281 l 1
 443 281 l 1
 459 277 l 1
 472 268 l 1
 481 255 l 1
 485 239 l 1
 485 165 l 1
 480 146 l 1
 456 97 l 1
 399 37 l 1
 338 4 l 1
 320 0 l 1
 221 0 l 1
 203 4 l 1
 143 37 l 1
 86 97 l 1
 59 152 l 1
 34 225 l 1
 32 361 l 1
 59 448 l 1
 86 503 l 1
 93 514 l 1
 154 571 l 1
 203 596 l 1
 221 600 l 1
 320 600 l 1
 338 596 l 1
 399 563 l 1
 448 514 l 1
 480 454 l 1
 484 438 l 1
 482 422 l 1
 474 408 l 1
 461 398 l 1
 446 393 l 1
 429 395 l 1
 415 403 l 1
 405 416 l 1
 383 459 l 1
 344 499 l 1
 310 516 l 1
 231 516 l 1
 197 499 l 1
 158 459 l 1
 137 419 l 1
 116 355 l 1
 116 245 l 1
 137 181 l 1
 158 141 l 1
 197 101 l 1
 231 84 l 1
 310 84 l 1
 344 101 l 1
 383 141 l 1
 401 175 l 1
 401 197 l 1
EndSplineSet
EndChar

StartChar: H
Encoding: 72 72 35
Width: 540
VWidth: 0
Flags: W
HStem: 0 21G<82 114 426 458> 270 84<140 400> 580 20G<82 114 426 458>
VStem: 56 84<26 270 354 574> 400 84<26 270 354 574>
LayerCount: 2
Back
Fore
SplineSet
56 312 m 1
 56 558 l 1
 59 574 l 1
 68 588 l 1
 82 597 l 1
 98 600 l 1
 114 597 l 1
 128 588 l 1
 137 574 l 1
 140 558 l 1
 140 354 l 1
 400 354 l 1
 400 558 l 1
 403 574 l 1
 412 588 l 1
 426 597 l 1
 442 600 l 1
 458 597 l 1
 472 588 l 1
 481 574 l 1
 484 558 l 1
 484 42 l 1
 481 26 l 1
 472 12 l 1
 458 3 l 1
 442 0 l 1
 426 3 l 1
 412 12 l 1
 403 26 l 1
 400 42 l 1
 400 270 l 1
 140 270 l 1
 140 42 l 1
 137 26 l 1
 128 12 l 1
 114 3 l 1
 98 0 l 1
 82 3 l 1
 68 12 l 1
 59 26 l 1
 56 42 l 1
 56 312 l 1
EndSplineSet
EndChar

StartChar: I
Encoding: 73 73 36
Width: 196
VWidth: 0
Flags: W
HStem: 0 21G<82 114> 580 20G<82 114>
VStem: 56 84<26 574>
LayerCount: 2
Back
Fore
SplineSet
56 42 m 1
 56 558 l 1
 59 574 l 1
 68 588 l 1
 82 597 l 1
 98 600 l 1
 114 597 l 1
 128 588 l 1
 137 574 l 1
 140 558 l 1
 140 42 l 1
 137 26 l 1
 128 12 l 1
 114 3 l 1
 98 0 l 1
 82 3 l 1
 68 12 l 1
 59 26 l 1
 56 42 l 1
EndSplineSet
EndChar

StartChar: J
Encoding: 74 74 37
Width: 393
VWidth: 0
Flags: W
HStem: 0 84<157 186> 580 20G<278 310>
VStem: 9 82<150.632 230> 252 84<150.632 574>
LayerCount: 2
Back
Fore
SplineSet
252 172 m 1
 252 558 l 1
 255 574 l 1
 265 588 l 1
 278 597 l 1
 294 600 l 1
 310 597 l 1
 324 588 l 1
 333 574 l 1
 336 558 l 1
 336 165 l 1
 310 78 l 1
 299 61 l 1
 264 29 l 1
 215 4 l 1
 196 0 l 1
 147 0 l 1
 128 4 l 1
 79 29 l 1
 43 61 l 1
 33 78 l 1
 9 152 l 1
 7 214 l 1
 10 230 l 1
 19 244 l 1
 32 253 l 1
 49 256 l 1
 65 253 l 1
 78 244 l 1
 87 230 l 1
 91 214 l 1
 91 172 l 1
 110 114 l 1
 123 101 l 1
 157 84 l 1
 186 84 l 1
 220 101 l 1
 233 114 l 1
 252 172 l 1
EndSplineSet
EndChar

StartChar: K
Encoding: 75 75 38
Width: 516
VWidth: 0
Flags: W
HStem: 0 21G<82 114 421 452> 580 20G<82 114 426 458>
VStem: 56 84<26 197 315 574>
LayerCount: 2
Back
Fore
SplineSet
56 214 m 1
 56 558 l 1
 59 574 l 1
 68 588 l 1
 82 597 l 1
 98 600 l 1
 114 597 l 1
 128 588 l 1
 137 574 l 1
 140 558 l 1
 140 315 l 1
 412 588 l 1
 426 597 l 1
 442 600 l 1
 458 597 l 1
 472 588 l 1
 481 574 l 1
 484 558 l 1
 481 542 l 1
 472 528 l 1
 276 333 l 1
 476 67 l 1
 483 52 l 1
 484 36 l 1
 478 21 l 1
 467 8 l 1
 452 1 l 1
 436 0 l 1
 421 6 l 1
 408 17 l 1
 216 273 l 1
 140 197 l 1
 140 42 l 1
 137 26 l 1
 128 12 l 1
 114 3 l 1
 98 0 l 1
 82 3 l 1
 68 12 l 1
 59 26 l 1
 56 42 l 1
 56 214 l 1
EndSplineSet
EndChar

StartChar: L
Encoding: 76 76 39
Width: 417
VWidth: 0
Flags: W
HStem: 0 84<140 409> 580 20G<81 114>
VStem: 56 84<84 574>
LayerCount: 2
Back
Fore
SplineSet
56 42 m 1
 56 558 l 1
 59 574 l 1
 68 588 l 1
 81 597 l 1
 98 600 l 1
 114 597 l 1
 127 588 l 1
 136 574 l 1
 140 558 l 1
 140 84 l 1
 392 84 l 1
 409 81 l 1
 422 72 l 1
 431 58 l 1
 434 42 l 1
 431 26 l 1
 422 12 l 1
 409 3 l 1
 392 0 l 1
 98 0 l 1
 81 3 l 1
 68 12 l 1
 59 26 l 1
 56 42 l 1
EndSplineSet
EndChar

StartChar: M
Encoding: 77 77 40
Width: 591
VWidth: 0
Flags: W
HStem: 0 21G<82 115 278 312 475 508> 580 20G<83 116 475 507>
VStem: 56 84<26 330> 450 84<26 330>
LayerCount: 2
Back
Fore
SplineSet
56 42 m 1
 56 559 l 1
 60 574 l 1
 69 588 l 1
 83 597 l 1
 100 600 l 1
 116 596 l 1
 128 588 l 1
 137 574 l 1
 295 160 l 1
 453 574 l 1
 462 588 l 1
 475 597 l 1
 492 600 l 1
 507 597 l 1
 520 589 l 1
 530 575 l 1
 534 558 l 1
 534 42 l 1
 530 26 l 1
 521 12 l 1
 508 3 l 1
 492 0 l 1
 475 3 l 1
 462 12 l 1
 453 26 l 1
 450 42 l 1
 450 330 l 1
 333 25 l 1
 324 11 l 1
 312 4 l 1
 294 0 l 1
 278 4 l 1
 264 13 l 1
 257 25 l 1
 140 330 l 1
 140 42 l 1
 137 26 l 1
 128 12 l 1
 115 3 l 1
 98 0 l 1
 82 3 l 1
 69 12 l 1
 60 26 l 1
 56 42 l 1
EndSplineSet
EndChar

StartChar: N
Encoding: 78 78 41
Width: 540
VWidth: 0
Flags: W
HStem: 1 21G<82 114 412 465> 579 20G<75 114 426 458>
VStem: 56 84<26 419> 400 84<181 574>
LayerCount: 2
Back
Fore
SplineSet
56 42 m 1
 56 558 l 1
 63 581 l 1
 75 593 l 1
 90 599 l 1
 114 597 l 1
 128 588 l 1
 400 181 l 1
 400 558 l 1
 403 574 l 1
 412 588 l 1
 426 597 l 1
 442 600 l 1
 458 597 l 1
 472 588 l 1
 481 574 l 1
 484 558 l 1
 484 42 l 1
 477 19 l 1
 465 7 l 1
 450 1 l 1
 434 1 l 1
 412 12 l 1
 140 419 l 1
 140 42 l 1
 137 26 l 1
 128 12 l 1
 114 3 l 1
 98 0 l 1
 82 3 l 1
 68 12 l 1
 59 26 l 1
 56 42 l 1
EndSplineSet
EndChar

StartChar: O
Encoding: 79 79 42
Width: 541
VWidth: 0
Flags: W
HStem: 0 84<231 309> 516 84<231 309>
VStem: 34 81<245 355> 425 84<245 355>
LayerCount: 2
Back
Fore
SplineSet
153 571 m 1
 205 597 l 1
 218 600 l 1
 319 600 l 1
 338 596 l 1
 387 571 l 1
 447 514 l 1
 455 503 l 1
 482 448 l 1
 506 375 l 1
 509 239 l 1
 480 146 l 1
 447 86 l 1
 398 37 l 1
 338 4 l 1
 319 0 l 1
 221 0 l 1
 202 4 l 1
 142 37 l 1
 85 97 l 1
 58 152 l 1
 34 225 l 1
 31 361 l 1
 58 448 l 1
 93 514 l 1
 153 571 l 1
231 516 m 1
 197 499 l 1
 157 459 l 1
 137 419 l 1
 115 355 l 1
 115 245 l 1
 137 181 l 1
 157 141 l 1
 197 101 l 1
 231 84 l 1
 309 84 l 1
 343 101 l 1
 383 141 l 1
 403 181 l 1
 425 245 l 1
 425 355 l 1
 403 419 l 1
 383 459 l 1
 343 499 l 1
 309 516 l 1
 231 516 l 1
EndSplineSet
EndChar

StartChar: P
Encoding: 80 80 43
Width: 516
VWidth: 0
Flags: W
HStem: 0 21G<82 114> 246 84<140 333.368> 516 84<140 332>
VStem: 56 84<26 246 330 516> 400 84<396 450>
LayerCount: 2
Back
Fore
SplineSet
56 558 m 1
 59 574 l 1
 68 588 l 1
 82 597 l 1
 98 600 l 1
 319 600 l 1
 332 598 l 1
 406 573 l 1
 423 563 l 1
 455 528 l 1
 480 478 l 1
 484 460 l 1
 484 386 l 1
 480 367 l 1
 455 318 l 1
 423 283 l 1
 406 272 l 1
 319 246 l 1
 140 246 l 1
 140 42 l 1
 137 26 l 1
 128 12 l 1
 114 3 l 1
 98 0 l 1
 82 3 l 1
 68 12 l 1
 59 26 l 1
 56 42 l 1
 56 558 l 1
140 516 m 1
 140 330 l 1
 312 330 l 1
 370 349 l 1
 383 362 l 1
 400 396 l 1
 400 450 l 1
 383 484 l 1
 370 497 l 1
 312 516 l 1
 140 516 l 1
EndSplineSet
EndChar

StartChar: Q
Encoding: 81 81 44
Width: 541
VWidth: 0
Flags: W
HStem: 0 84<231 291> 516 84<231 309>
VStem: 31 84<245 355> 425 84<245 355>
LayerCount: 2
Back
Fore
SplineSet
153 571 m 1
 205 597 l 1
 218 600 l 1
 319 600 l 1
 338 596 l 1
 398 563 l 1
 447 514 l 1
 480 454 l 1
 509 361 l 1
 509 239 l 1
 480 146 l 1
 455 97 l 1
 428 67 l 1
 472 23 l 1
 481 9 l 1
 484 -7 l 1
 481 -23 l 1
 472 -37 l 1
 458 -46 l 1
 442 -49 l 1
 426 -46 l 1
 412 -37 l 1
 360 15 l 1
 338 4 l 1
 319 0 l 1
 221 0 l 1
 202 4 l 1
 142 37 l 1
 93 86 l 1
 60 146 l 1
 31 239 l 1
 34 375 l 1
 58 448 l 1
 85 503 l 1
 93 514 l 1
 153 571 l 1
368 126 m 1
 383 141 l 1
 403 181 l 1
 425 245 l 1
 425 355 l 1
 403 419 l 1
 383 459 l 1
 343 499 l 1
 309 516 l 1
 231 516 l 1
 197 499 l 1
 157 459 l 1
 137 419 l 1
 115 355 l 1
 115 245 l 1
 137 181 l 1
 157 141 l 1
 197 101 l 1
 231 84 l 1
 291 84 l 1
 265 111 l 1
 256 124 l 1
 253 140 l 1
 256 156 l 1
 265 170 l 1
 278 179 l 1
 295 182 l 1
 311 179 l 1
 324 170 l 1
 368 126 l 1
EndSplineSet
EndChar

StartChar: R
Encoding: 82 82 45
Width: 516
VWidth: 0
Flags: W
HStem: 1 21G<82 114 418 465> 270 84<140 247> 516 84<140 333.368>
VStem: 56 84<26 270 354 516> 400 84<420 450>
LayerCount: 2
Back
Fore
SplineSet
56 558 m 1
 59 574 l 1
 68 588 l 1
 82 597 l 1
 98 600 l 1
 319 600 l 1
 406 573 l 1
 423 563 l 1
 447 539 l 1
 480 478 l 1
 484 460 l 1
 484 411 l 1
 480 392 l 1
 455 343 l 1
 423 307 l 1
 406 297 l 1
 343 276 l 1
 477 65 l 1
 483 49 l 1
 483 33 l 1
 476 18 l 1
 465 7 l 1
 449 1 l 1
 433 1 l 1
 418 8 l 1
 407 19 l 1
 247 270 l 1
 140 270 l 1
 140 42 l 1
 137 26 l 1
 128 12 l 1
 114 3 l 1
 98 0 l 1
 82 3 l 1
 68 12 l 1
 59 26 l 1
 56 42 l 1
 56 558 l 1
140 516 m 1
 140 354 l 1
 312 354 l 1
 370 374 l 1
 383 386 l 1
 400 420 l 1
 400 450 l 1
 383 484 l 1
 370 497 l 1
 312 516 l 1
 140 516 l 1
EndSplineSet
EndChar

StartChar: S
Encoding: 83 83 46
Width: 492
VWidth: 0
Flags: W
HStem: 2 82<182.632 308> 516 82<184 309.368>
VStem: 376 84<133 180>
LayerCount: 2
Back
Fore
SplineSet
399 563 m 1
 448 514 l 1
 457 500 l 1
 460 484 l 1
 457 468 l 1
 448 455 l 1
 434 445 l 1
 418 442 l 1
 402 445 l 1
 388 455 l 1
 346 497 l 1
 288 516 l 1
 204 516 l 1
 146 497 l 1
 116 467 l 1
 116 445 l 1
 133 411 l 1
 148 396 l 1
 188 376 l 1
 338 325 l 1
 388 301 l 1
 423 268 l 1
 456 208 l 1
 460 189 l 1
 460 116 l 1
 457 100 l 1
 448 86 l 1
 399 37 l 1
 382 27 l 1
 308 2 l 1
 197 0 l 1
 110 27 l 1
 93 37 l 1
 44 86 l 1
 35 100 l 1
 32 116 l 1
 35 132 l 1
 44 145 l 1
 58 155 l 1
 74 158 l 1
 90 155 l 1
 104 145 l 1
 146 103 l 1
 204 84 l 1
 288 84 l 1
 346 103 l 1
 376 133 l 1
 376 180 l 1
 359 214 l 1
 344 229 l 1
 304 249 l 1
 159 297 l 1
 93 332 l 1
 61 367 l 1
 36 416 l 1
 32 435 l 1
 32 484 l 1
 35 500 l 1
 44 514 l 1
 93 563 l 1
 110 573 l 1
 184 598 l 1
 295 600 l 1
 382 573 l 1
 399 563 l 1
EndSplineSet
EndChar

StartChar: T
Encoding: 84 84 47
Width: 394
VWidth: 0
Flags: W
HStem: 0 21G<181 213> 516 84<9 155 239 385>
VStem: 155 84<26 516>
LayerCount: 2
Back
Fore
SplineSet
155 516 m 1
 25 516 l 1
 9 519 l 1
 -5 528 l 1
 -14 542 l 1
 -17 558 l 1
 -14 574 l 1
 -5 588 l 1
 9 597 l 1
 25 600 l 1
 369 600 l 1
 385 597 l 1
 399 588 l 1
 408 574 l 1
 411 558 l 1
 408 542 l 1
 399 528 l 1
 385 519 l 1
 369 516 l 1
 239 516 l 1
 239 42 l 1
 236 26 l 1
 227 12 l 1
 213 3 l 1
 197 0 l 1
 181 3 l 1
 167 12 l 1
 158 26 l 1
 155 42 l 1
 155 516 l 1
EndSplineSet
EndChar

StartChar: U
Encoding: 85 85 48
Width: 540
VWidth: 0
Flags: W
HStem: 2 82<232 309.368> 580 20G<82 114 426 458>
VStem: 56 84<174.632 574> 400 84<174.632 574>
LayerCount: 2
Back
Fore
SplineSet
56 189 m 1
 56 558 l 1
 59 574 l 1
 68 588 l 1
 82 597 l 1
 98 600 l 1
 114 597 l 1
 128 588 l 1
 137 574 l 1
 140 558 l 1
 140 196 l 1
 159 138 l 1
 194 103 l 1
 252 84 l 1
 288 84 l 1
 346 103 l 1
 381 138 l 1
 400 196 l 1
 400 558 l 1
 403 574 l 1
 412 588 l 1
 426 597 l 1
 442 600 l 1
 458 597 l 1
 472 588 l 1
 481 574 l 1
 484 558 l 1
 484 189 l 1
 457 102 l 1
 447 86 l 1
 398 37 l 1
 382 27 l 1
 295 0 l 1
 232 2 l 1
 158 27 l 1
 142 37 l 1
 93 86 l 1
 83 102 l 1
 56 189 l 1
EndSplineSet
EndChar

StartChar: V
Encoding: 86 86 49
Width: 443
VWidth: 0
Flags: W
HStem: 0 21G<204 238> 580 20G<9 42 400 433>
LayerCount: 2
Back
Fore
SplineSet
221 160 m 1
 378 573 l 1
 387 587 l 1
 400 596 l 1
 416 600 l 1
 433 597 l 1
 446 589 l 1
 456 575 l 1
 460 559 l 1
 457 543 l 1
 260 27 l 1
 252 13 l 1
 238 4 l 1
 220 0 l 1
 204 4 l 1
 190 13 l 1
 183 25 l 1
 -15 543 l 1
 -18 559 l 1
 -14 575 l 1
 -4 589 l 1
 9 597 l 1
 26 600 l 1
 42 596 l 1
 55 587 l 1
 64 573 l 1
 221 160 l 1
EndSplineSet
EndChar

StartChar: W
Encoding: 87 87 50
Width: 589
VWidth: 0
Flags: W
HStem: 1 21G<147 196 395 441> 579 20G<24 70 269 319 518 564>
LayerCount: 2
Back
Fore
SplineSet
171 223 m 1
 253 568 l 1
 258 580 l 1
 269 592 l 1
 284 599 l 1
 304 599 l 1
 319 592 l 1
 328 583 l 1
 335 568 l 1
 417 223 l 1
 499 568 l 1
 506 583 l 1
 518 594 l 1
 533 599 l 1
 549 599 l 1
 564 592 l 1
 575 580 l 1
 581 565 l 1
 581 548 l 1
 458 32 l 1
 451 17 l 1
 441 8 l 1
 427 1 l 1
 410 1 l 1
 395 6 l 1
 381 20 l 1
 376 32 l 1
 294 377 l 1
 212 32 l 1
 205 17 l 1
 196 8 l 1
 181 1 l 1
 164 1 l 1
 147 8 l 1
 137 17 l 1
 130 32 l 1
 7 548 l 1
 7 565 l 1
 13 580 l 1
 24 592 l 1
 39 599 l 1
 55 599 l 1
 70 594 l 1
 82 583 l 1
 89 568 l 1
 171 223 l 1
EndSplineSet
EndChar

StartChar: X
Encoding: 88 88 51
Width: 491
VWidth: 0
Flags: W
HStem: 1 21G<50 96 394 440> 579 20G<50 96 394 440>
LayerCount: 2
Back
Fore
SplineSet
38 65 m 1
 195 300 l 1
 38 535 l 1
 32 550 l 1
 32 566 l 1
 38 581 l 1
 50 593 l 1
 65 599 l 1
 81 599 l 1
 96 593 l 1
 108 581 l 1
 245 376 l 1
 382 581 l 1
 394 593 l 1
 409 599 l 1
 425 599 l 1
 440 593 l 1
 452 581 l 1
 458 566 l 1
 458 550 l 1
 452 535 l 1
 295 300 l 1
 452 65 l 1
 458 50 l 1
 458 34 l 1
 452 19 l 1
 440 7 l 1
 425 1 l 1
 409 1 l 1
 394 7 l 1
 382 19 l 1
 245 224 l 1
 108 19 l 1
 96 7 l 1
 81 1 l 1
 65 1 l 1
 50 7 l 1
 38 19 l 1
 32 34 l 1
 32 50 l 1
 38 65 l 1
EndSplineSet
EndChar

StartChar: Y
Encoding: 89 89 52
Width: 441
VWidth: 0
Flags: W
HStem: 0 21G<204 236> 580 20G<12 44 396 428>
VStem: 178 84<26 298>
LayerCount: 2
Back
Fore
SplineSet
178 298 m 1
 -9 532 l 1
 -17 546 l 1
 -18 563 l 1
 -13 578 l 1
 -3 591 l 1
 12 598 l 1
 28 600 l 1
 44 595 l 1
 56 584 l 1
 220 380 l 1
 384 584 l 1
 396 595 l 1
 412 600 l 1
 428 598 l 1
 443 591 l 1
 453 578 l 1
 458 563 l 1
 457 546 l 1
 449 532 l 1
 262 298 l 1
 262 42 l 1
 259 26 l 1
 250 12 l 1
 236 3 l 1
 220 0 l 1
 204 3 l 1
 190 12 l 1
 181 26 l 1
 178 42 l 1
 178 298 l 1
EndSplineSet
EndChar

StartChar: Z
Encoding: 90 90 53
Width: 492
VWidth: 0
Flags: W
HStem: 0 84<152 434> 516 84<58 340>
LayerCount: 2
Back
Fore
SplineSet
33 46 m 1
 39 65 l 1
 340 516 l 1
 74 516 l 1
 58 519 l 1
 44 528 l 1
 35 542 l 1
 32 558 l 1
 35 574 l 1
 44 588 l 1
 58 597 l 1
 74 600 l 1
 418 600 l 1
 441 593 l 1
 453 581 l 1
 459 566 l 1
 459 550 l 1
 453 535 l 1
 152 84 l 1
 418 84 l 1
 434 81 l 1
 448 72 l 1
 457 58 l 1
 460 42 l 1
 457 26 l 1
 448 12 l 1
 434 3 l 1
 418 0 l 1
 74 0 l 1
 58 3 l 1
 44 12 l 1
 35 26 l 1
 33 46 l 1
EndSplineSet
EndChar

StartChar: a
Encoding: 97 97 54
Width: 466
VWidth: 0
Flags: W
HStem: 0 84<205 259> 344 84<205 259>
VStem: 33 82<174.632 253.368> 325 84<133 295>
LayerCount: 2
Back
Fore
SplineSet
329 403 m 1
 338 416 l 1
 351 425 l 1
 367 428 l 1
 384 425 l 1
 397 416 l 1
 406 402 l 1
 409 386 l 1
 409 42 l 1
 406 26 l 1
 397 12 l 1
 384 3 l 1
 367 0 l 1
 351 3 l 1
 338 12 l 1
 329 25 l 1
 288 4 l 1
 269 0 l 1
 195 0 l 1
 177 4 l 1
 117 37 l 1
 67 86 l 1
 57 102 l 1
 33 176 l 1
 31 239 l 1
 57 326 l 1
 67 342 l 1
 117 391 l 1
 177 424 l 1
 195 428 l 1
 269 428 l 1
 288 424 l 1
 329 403 l 1
325 295 m 1
 293 327 l 1
 259 344 l 1
 205 344 l 1
 171 327 l 1
 134 290 l 1
 115 232 l 1
 115 196 l 1
 134 138 l 1
 171 101 l 1
 205 84 l 1
 259 84 l 1
 293 101 l 1
 325 133 l 1
 325 295 l 1
EndSplineSet
EndChar

StartChar: b
Encoding: 98 98 55
Width: 466
VWidth: 0
Flags: W
HStem: 0 84<206 260> 344 84<206 260> 580 20G<81 114>
VStem: 56 84<133 295 405 574> 350 84<174.632 253.368>
LayerCount: 2
Back
Fore
SplineSet
56 312 m 1
 56 558 l 1
 59 574 l 1
 68 588 l 1
 81 597 l 1
 98 600 l 1
 114 597 l 1
 127 588 l 1
 136 574 l 1
 140 558 l 1
 140 405 l 1
 177 424 l 1
 196 428 l 1
 270 428 l 1
 288 424 l 1
 348 391 l 1
 398 342 l 1
 408 326 l 1
 432 252 l 1
 434 189 l 1
 408 102 l 1
 398 86 l 1
 348 37 l 1
 288 4 l 1
 270 0 l 1
 196 0 l 1
 177 4 l 1
 136 25 l 1
 127 12 l 1
 114 3 l 1
 98 0 l 1
 81 3 l 1
 68 12 l 1
 59 26 l 1
 56 42 l 1
 56 312 l 1
140 133 m 1
 172 101 l 1
 206 84 l 1
 260 84 l 1
 294 101 l 1
 331 138 l 1
 350 196 l 1
 350 232 l 1
 331 290 l 1
 294 327 l 1
 260 344 l 1
 206 344 l 1
 172 327 l 1
 140 295 l 1
 140 133 l 1
EndSplineSet
EndChar

StartChar: c
Encoding: 99 99 56
Width: 441
VWidth: 0
Flags: W
HStem: 0 84<205 259> 344 84<205 259>
VStem: 33 82<174.632 252>
LayerCount: 2
Back
Fore
SplineSet
348 391 m 1
 397 342 l 1
 406 328 l 1
 409 312 l 1
 406 296 l 1
 397 283 l 1
 384 273 l 1
 367 270 l 1
 351 273 l 1
 338 283 l 1
 293 327 l 1
 259 344 l 1
 205 344 l 1
 171 327 l 1
 134 290 l 1
 115 232 l 1
 115 196 l 1
 134 138 l 1
 171 101 l 1
 205 84 l 1
 259 84 l 1
 293 101 l 1
 338 145 l 1
 351 155 l 1
 367 158 l 1
 384 155 l 1
 397 145 l 1
 406 132 l 1
 409 116 l 1
 406 100 l 1
 397 86 l 1
 348 37 l 1
 288 4 l 1
 269 0 l 1
 195 0 l 1
 177 4 l 1
 128 29 l 1
 67 86 l 1
 57 102 l 1
 33 176 l 1
 31 239 l 1
 33 252 l 1
 57 326 l 1
 67 342 l 1
 117 391 l 1
 177 424 l 1
 195 428 l 1
 269 428 l 1
 288 424 l 1
 348 391 l 1
EndSplineSet
EndChar

StartChar: d
Encoding: 100 100 57
Width: 466
VWidth: 0
Flags: W
HStem: 0 84<205 259> 344 84<205 259> 580 20G<351 384>
VStem: 33 82<174.632 253.368> 325 84<133 295 405 574>
LayerCount: 2
Back
Fore
SplineSet
325 405 m 1
 325 558 l 1
 329 574 l 1
 338 588 l 1
 351 597 l 1
 367 600 l 1
 384 597 l 1
 397 588 l 1
 406 574 l 1
 409 558 l 1
 409 42 l 1
 406 26 l 1
 397 12 l 1
 384 3 l 1
 367 0 l 1
 351 3 l 1
 338 12 l 1
 329 25 l 1
 288 4 l 1
 269 0 l 1
 195 0 l 1
 177 4 l 1
 117 37 l 1
 67 86 l 1
 57 102 l 1
 33 176 l 1
 31 239 l 1
 57 326 l 1
 67 342 l 1
 117 391 l 1
 177 424 l 1
 195 428 l 1
 269 428 l 1
 288 424 l 1
 325 405 l 1
325 295 m 1
 293 327 l 1
 259 344 l 1
 205 344 l 1
 171 327 l 1
 134 290 l 1
 115 232 l 1
 115 196 l 1
 134 138 l 1
 171 101 l 1
 205 84 l 1
 259 84 l 1
 293 101 l 1
 325 133 l 1
 325 295 l 1
EndSplineSet
EndChar

StartChar: e
Encoding: 101 101 58
Width: 441
VWidth: 0
Flags: W
HStem: 0 84<205 259> 197 84<131 324> 344 84<205 259>
LayerCount: 2
Back
Fore
SplineSet
31 239 m 1
 57 326 l 1
 67 342 l 1
 128 399 l 1
 177 424 l 1
 195 428 l 1
 269 428 l 1
 288 424 l 1
 348 391 l 1
 380 356 l 1
 405 306 l 1
 409 288 l 1
 409 239 l 1
 406 222 l 1
 397 209 l 1
 384 200 l 1
 367 197 l 1
 115 197 l 1
 134 138 l 1
 171 101 l 1
 205 84 l 1
 259 84 l 1
 293 101 l 1
 338 145 l 1
 351 155 l 1
 367 158 l 1
 384 155 l 1
 397 145 l 1
 406 132 l 1
 409 116 l 1
 406 100 l 1
 397 86 l 1
 348 37 l 1
 288 4 l 1
 269 0 l 1
 195 0 l 1
 177 4 l 1
 117 37 l 1
 67 86 l 1
 57 102 l 1
 33 176 l 1
 31 239 l 1
131 281 m 1
 324 281 l 1
 308 312 l 1
 293 327 l 1
 259 344 l 1
 205 344 l 1
 171 327 l 1
 134 290 l 1
 131 281 l 1
EndSplineSet
EndChar

StartChar: f
Encoding: 102 102 59
Width: 296
VWidth: 0
Flags: W
HStem: 0 21G<107 139> 344 84<33 81 165 237> 516 84<207 262>
VStem: 81 84<26 344 428 453>
LayerCount: 2
Back
Fore
SplineSet
81 428 m 1
 83 473 l 1
 108 547 l 1
 116 561 l 1
 129 571 l 1
 178 596 l 1
 197 600 l 1
 246 600 l 1
 262 597 l 1
 276 588 l 1
 285 574 l 1
 288 558 l 1
 285 542 l 1
 276 528 l 1
 262 519 l 1
 246 516 l 1
 207 516 l 1
 182 504 l 1
 165 453 l 1
 165 428 l 1
 221 428 l 1
 237 425 l 1
 251 416 l 1
 260 402 l 1
 263 386 l 1
 260 370 l 1
 251 356 l 1
 237 347 l 1
 221 344 l 1
 165 344 l 1
 165 42 l 1
 162 26 l 1
 153 12 l 1
 139 3 l 1
 123 0 l 1
 107 3 l 1
 93 12 l 1
 84 26 l 1
 81 42 l 1
 81 344 l 1
 49 344 l 1
 33 347 l 1
 20 356 l 1
 10 370 l 1
 7 386 l 1
 10 402 l 1
 20 416 l 1
 33 425 l 1
 49 428 l 1
 81 428 l 1
EndSplineSet
EndChar

StartChar: g
Encoding: 103 103 60
Width: 466
VWidth: 0
Flags: W
HStem: -172 84<205 259> 0 84<205 259> 344 84<205 259>
VStem: 33 82<174.632 252> 325 84<-20 23 133 295>
LayerCount: 2
Back
Fore
SplineSet
329 403 m 1
 338 416 l 1
 351 425 l 1
 367 428 l 1
 384 425 l 1
 397 416 l 1
 406 402 l 1
 409 386 l 1
 409 -7 l 1
 407 -20 l 1
 383 -94 l 1
 373 -111 l 1
 337 -143 l 1
 288 -168 l 1
 269 -172 l 1
 195 -172 l 1
 177 -168 l 1
 128 -143 l 1
 115 -133 l 1
 106 -119 l 1
 104 -102 l 1
 109 -87 l 1
 119 -74 l 1
 133 -66 l 1
 149 -64 l 1
 165 -68 l 1
 205 -88 l 1
 259 -88 l 1
 293 -71 l 1
 306 -58 l 1
 325 0 l 1
 325 23 l 1
 288 4 l 1
 269 0 l 1
 195 0 l 1
 177 4 l 1
 117 37 l 1
 67 86 l 1
 57 102 l 1
 33 176 l 1
 31 239 l 1
 33 252 l 1
 57 326 l 1
 67 342 l 1
 128 399 l 1
 177 424 l 1
 195 428 l 1
 269 428 l 1
 288 424 l 1
 329 403 l 1
325 295 m 1
 293 327 l 1
 259 344 l 1
 205 344 l 1
 171 327 l 1
 134 290 l 1
 115 232 l 1
 115 196 l 1
 134 138 l 1
 171 101 l 1
 205 84 l 1
 259 84 l 1
 293 101 l 1
 325 133 l 1
 325 295 l 1
EndSplineSet
EndChar

StartChar: h
Encoding: 104 104 61
Width: 467
VWidth: 0
Flags: W
HStem: 0 21G<82 114 352 385> 344 84<231 285> 580 20G<82 114>
VStem: 56 84<26 270 389 574> 326 84<26 303.312>
LayerCount: 2
Back
Fore
SplineSet
56 288 m 1
 56 558 l 1
 59 574 l 1
 68 588 l 1
 82 597 l 1
 98 600 l 1
 114 597 l 1
 128 588 l 1
 137 574 l 1
 140 558 l 1
 140 389 l 1
 153 399 l 1
 202 424 l 1
 221 428 l 1
 295 428 l 1
 313 424 l 1
 363 399 l 1
 376 389 l 1
 384 375 l 1
 410 288 l 1
 410 42 l 1
 407 26 l 1
 398 12 l 1
 385 3 l 1
 368 0 l 1
 352 3 l 1
 339 12 l 1
 330 26 l 1
 326 42 l 1
 326 281 l 1
 310 332 l 1
 285 344 l 1
 231 344 l 1
 197 327 l 1
 140 270 l 1
 140 42 l 1
 137 26 l 1
 128 12 l 1
 114 3 l 1
 98 0 l 1
 82 3 l 1
 68 12 l 1
 59 26 l 1
 56 42 l 1
 56 288 l 1
EndSplineSet
EndChar

StartChar: i
Encoding: 105 105 62
Width: 197
VWidth: 0
Flags: W
HStem: 0 21G<82 114> 408 20G<82 114>
VStem: 56 84<26 402>
LayerCount: 2
Back
Fore
SplineSet
31 558 m 1
 35 574 l 1
 44 588 l 1
 68 612 l 1
 82 621 l 1
 98 625 l 1
 114 621 l 1
 128 612 l 1
 152 588 l 1
 161 574 l 1
 165 558 l 1
 161 542 l 1
 152 528 l 1
 128 504 l 1
 114 495 l 1
 98 491 l 1
 82 495 l 1
 68 504 l 1
 44 528 l 1
 35 542 l 1
 31 558 l 1
56 42 m 1
 56 386 l 1
 59 402 l 1
 68 416 l 1
 82 425 l 1
 98 428 l 1
 114 425 l 1
 128 416 l 1
 137 402 l 1
 140 386 l 1
 140 42 l 1
 137 26 l 1
 128 12 l 1
 114 3 l 1
 98 0 l 1
 82 3 l 1
 68 12 l 1
 59 26 l 1
 56 42 l 1
EndSplineSet
EndChar

StartChar: j
Encoding: 106 106 63
Width: 245
VWidth: 0
Flags: W
HStem: -172 84<8 63> 408 20G<130 163>
VStem: 105 84<-25 402>
LayerCount: 2
Back
Fore
SplineSet
80 558 m 1
 83 574 l 1
 92 588 l 1
 117 612 l 1
 130 621 l 1
 147 625 l 1
 163 621 l 1
 176 612 l 1
 201 588 l 1
 210 574 l 1
 213 558 l 1
 210 542 l 1
 201 528 l 1
 176 504 l 1
 163 495 l 1
 147 491 l 1
 130 495 l 1
 117 504 l 1
 92 528 l 1
 83 542 l 1
 80 558 l 1
105 -25 m 1
 105 386 l 1
 108 402 l 1
 117 416 l 1
 130 425 l 1
 147 428 l 1
 163 425 l 1
 176 416 l 1
 185 402 l 1
 189 386 l 1
 189 -32 l 1
 186 -45 l 1
 162 -119 l 1
 154 -133 l 1
 141 -143 l 1
 92 -168 l 1
 73 -172 l 1
 24 -172 l 1
 8 -169 l 1
 -6 -160 l 1
 -15 -146 l 1
 -18 -130 l 1
 -15 -114 l 1
 -6 -100 l 1
 8 -91 l 1
 24 -88 l 1
 63 -88 l 1
 88 -76 l 1
 105 -25 l 1
EndSplineSet
EndChar

StartChar: k
Encoding: 107 107 64
Width: 418
VWidth: 0
Flags: W
HStem: 0 21G<82 114 350 382> 408 20G<328 360> 580 20G<82 114>
VStem: 56 84<26 123 242 574>
LayerCount: 2
Back
Fore
SplineSet
56 140 m 1
 56 558 l 1
 59 574 l 1
 68 588 l 1
 82 597 l 1
 98 600 l 1
 114 597 l 1
 128 588 l 1
 137 574 l 1
 140 558 l 1
 140 242 l 1
 314 416 l 1
 328 425 l 1
 344 428 l 1
 360 425 l 1
 374 416 l 1
 383 402 l 1
 386 386 l 1
 383 370 l 1
 374 356 l 1
 254 237 l 1
 400 70 l 1
 408 55 l 1
 410 39 l 1
 406 23 l 1
 396 10 l 1
 382 2 l 1
 366 0 l 1
 350 4 l 1
 337 14 l 1
 194 177 l 1
 140 123 l 1
 140 42 l 1
 137 26 l 1
 128 12 l 1
 114 3 l 1
 98 0 l 1
 82 3 l 1
 68 12 l 1
 59 26 l 1
 56 42 l 1
 56 140 l 1
EndSplineSet
EndChar

StartChar: l
Encoding: 108 108 65
Width: 196
VWidth: 0
Flags: W
HStem: 0 21G<82 114> 580 20G<82 114>
VStem: 56 84<26 574>
LayerCount: 2
Back
Fore
SplineSet
56 42 m 1
 56 558 l 1
 59 574 l 1
 68 588 l 1
 82 597 l 1
 98 600 l 1
 114 597 l 1
 128 588 l 1
 137 574 l 1
 140 558 l 1
 140 42 l 1
 137 26 l 1
 128 12 l 1
 114 3 l 1
 98 0 l 1
 82 3 l 1
 68 12 l 1
 59 26 l 1
 56 42 l 1
EndSplineSet
EndChar

StartChar: m
Encoding: 109 109 66
Width: 737
VWidth: 0
Flags: W
HStem: 0 21G<82 114 352 384 622 654> 344 84<230 284 501 555>
VStem: 56 84<26 270> 326 84<26 270> 596 84<26 281>
CounterMasks: 1 38
LayerCount: 2
Back
Fore
SplineSet
56 288 m 1
 56 386 l 1
 59 402 l 1
 68 416 l 1
 82 425 l 1
 98 428 l 1
 114 425 l 1
 127 416 l 1
 137 402 l 1
 139 389 l 1
 153 399 l 1
 202 424 l 1
 221 428 l 1
 294 428 l 1
 313 424 l 1
 362 399 l 1
 375 389 l 1
 386 365 l 1
 423 399 l 1
 472 424 l 1
 491 428 l 1
 565 428 l 1
 583 424 l 1
 632 399 l 1
 645 389 l 1
 654 375 l 1
 678 301 l 1
 680 288 l 1
 680 42 l 1
 677 26 l 1
 668 12 l 1
 654 3 l 1
 638 0 l 1
 622 3 l 1
 609 12 l 1
 599 26 l 1
 596 42 l 1
 596 281 l 1
 579 332 l 1
 555 344 l 1
 501 344 l 1
 467 327 l 1
 410 270 l 1
 410 42 l 1
 407 26 l 1
 398 12 l 1
 384 3 l 1
 368 0 l 1
 352 3 l 1
 338 12 l 1
 329 26 l 1
 326 42 l 1
 326 281 l 1
 309 332 l 1
 284 344 l 1
 230 344 l 1
 196 327 l 1
 140 270 l 1
 140 42 l 1
 137 26 l 1
 127 12 l 1
 114 3 l 1
 98 0 l 1
 82 3 l 1
 68 12 l 1
 59 26 l 1
 56 42 l 1
 56 288 l 1
EndSplineSet
EndChar

StartChar: n
Encoding: 110 110 67
Width: 467
VWidth: 0
Flags: W
HStem: 0 21G<82 114 352 385> 344 84<231 285>
VStem: 56 84<26 270> 326 84<26 303.312>
LayerCount: 2
Back
Fore
SplineSet
56 288 m 1
 56 386 l 1
 59 402 l 1
 68 416 l 1
 82 425 l 1
 98 428 l 1
 114 425 l 1
 128 416 l 1
 137 402 l 1
 140 389 l 1
 153 399 l 1
 202 424 l 1
 221 428 l 1
 295 428 l 1
 313 424 l 1
 363 399 l 1
 376 389 l 1
 384 375 l 1
 410 288 l 1
 410 42 l 1
 407 26 l 1
 398 12 l 1
 385 3 l 1
 368 0 l 1
 352 3 l 1
 339 12 l 1
 330 26 l 1
 326 42 l 1
 326 281 l 1
 310 332 l 1
 285 344 l 1
 231 344 l 1
 197 327 l 1
 140 270 l 1
 140 42 l 1
 137 26 l 1
 128 12 l 1
 114 3 l 1
 98 0 l 1
 82 3 l 1
 68 12 l 1
 59 26 l 1
 56 42 l 1
 56 288 l 1
EndSplineSet
EndChar

StartChar: o
Encoding: 111 111 68
Width: 466
VWidth: 0
Flags: W
HStem: 0 84<205 259> 344 84<205 259>
VStem: 33 82<174.632 252> 350 84<174.632 252>
LayerCount: 2
Back
Fore
SplineSet
128 399 m 1
 179 425 l 1
 192 428 l 1
 269 428 l 1
 288 424 l 1
 348 391 l 1
 397 342 l 1
 407 326 l 1
 432 252 l 1
 434 189 l 1
 407 102 l 1
 397 86 l 1
 348 37 l 1
 288 4 l 1
 269 0 l 1
 195 0 l 1
 177 4 l 1
 117 37 l 1
 67 86 l 1
 57 102 l 1
 33 176 l 1
 31 239 l 1
 33 252 l 1
 57 326 l 1
 67 342 l 1
 128 399 l 1
205 344 m 1
 171 327 l 1
 134 290 l 1
 115 232 l 1
 115 196 l 1
 134 138 l 1
 171 101 l 1
 205 84 l 1
 259 84 l 1
 293 101 l 1
 331 138 l 1
 350 196 l 1
 350 232 l 1
 331 290 l 1
 293 327 l 1
 259 344 l 1
 205 344 l 1
EndSplineSet
EndChar

StartChar: p
Encoding: 112 112 69
Width: 466
VWidth: 0
Flags: W
HStem: -172 21G<81 114> 0 84<206 260> 344 84<206 260>
VStem: 56 84<-146 23 133 295> 350 82<174.632 253.368>
LayerCount: 2
Back
Fore
SplineSet
56 312 m 1
 56 386 l 1
 59 402 l 1
 68 416 l 1
 81 425 l 1
 98 428 l 1
 114 425 l 1
 127 416 l 1
 136 403 l 1
 177 424 l 1
 196 428 l 1
 270 428 l 1
 288 424 l 1
 337 399 l 1
 398 342 l 1
 408 326 l 1
 434 239 l 1
 432 176 l 1
 408 102 l 1
 398 86 l 1
 348 37 l 1
 288 4 l 1
 270 0 l 1
 196 0 l 1
 177 4 l 1
 140 23 l 1
 140 -130 l 1
 136 -146 l 1
 127 -160 l 1
 114 -169 l 1
 98 -172 l 1
 81 -169 l 1
 68 -160 l 1
 59 -146 l 1
 56 -130 l 1
 56 312 l 1
140 133 m 1
 172 101 l 1
 206 84 l 1
 260 84 l 1
 294 101 l 1
 331 138 l 1
 350 196 l 1
 350 232 l 1
 331 290 l 1
 294 327 l 1
 260 344 l 1
 206 344 l 1
 172 327 l 1
 140 295 l 1
 140 133 l 1
EndSplineSet
EndChar

StartChar: q
Encoding: 113 113 70
Width: 466
VWidth: 0
Flags: W
HStem: -172 21G<351 384> 0 84<205 259> 344 84<205 259>
VStem: 31 84<174.632 253.368> 325 84<-146 23 133 295>
LayerCount: 2
Back
Fore
SplineSet
329 403 m 1
 338 416 l 1
 351 425 l 1
 367 428 l 1
 384 425 l 1
 397 416 l 1
 406 402 l 1
 409 386 l 1
 409 -130 l 1
 406 -146 l 1
 397 -160 l 1
 384 -169 l 1
 367 -172 l 1
 351 -169 l 1
 338 -160 l 1
 329 -146 l 1
 325 -130 l 1
 325 23 l 1
 288 4 l 1
 269 0 l 1
 195 0 l 1
 177 4 l 1
 128 29 l 1
 67 86 l 1
 57 102 l 1
 31 189 l 1
 33 252 l 1
 57 326 l 1
 67 342 l 1
 128 399 l 1
 177 424 l 1
 195 428 l 1
 269 428 l 1
 288 424 l 1
 329 403 l 1
325 295 m 1
 293 327 l 1
 259 344 l 1
 205 344 l 1
 171 327 l 1
 134 290 l 1
 115 232 l 1
 115 196 l 1
 134 138 l 1
 171 101 l 1
 205 84 l 1
 259 84 l 1
 293 101 l 1
 325 133 l 1
 325 295 l 1
EndSplineSet
EndChar

StartChar: r
Encoding: 114 114 71
Width: 320
VWidth: 0
Flags: W
HStem: 0 21G<82 114> 344 84<231 311>
VStem: 56 84<26 232 389 402>
LayerCount: 2
Back
Fore
SplineSet
56 42 m 1
 56 386 l 1
 59 402 l 1
 69 416 l 1
 82 425 l 1
 98 428 l 1
 114 425 l 1
 128 416 l 1
 137 402 l 1
 140 389 l 1
 153 399 l 1
 202 424 l 1
 221 428 l 1
 295 428 l 1
 311 425 l 1
 325 416 l 1
 334 402 l 1
 337 386 l 1
 334 370 l 1
 325 356 l 1
 311 347 l 1
 295 344 l 1
 231 344 l 1
 197 327 l 1
 160 290 l 1
 140 232 l 1
 140 42 l 1
 137 26 l 1
 128 12 l 1
 114 3 l 1
 98 0 l 1
 82 3 l 1
 69 12 l 1
 59 26 l 1
 56 42 l 1
EndSplineSet
EndChar

StartChar: s
Encoding: 115 115 72
Width: 418
VWidth: 0
Flags: W
HStem: 0 84<179 239> 344 84<179 239>
LayerCount: 2
Back
Fore
SplineSet
357 380 m 1
 382 331 l 1
 386 315 l 1
 384 299 l 1
 376 285 l 1
 363 275 l 1
 347 270 l 1
 331 272 l 1
 317 281 l 1
 307 294 l 1
 290 327 l 1
 239 344 l 1
 179 344 l 1
 129 327 l 1
 121 312 l 1
 130 294 l 1
 162 279 l 1
 279 255 l 1
 339 227 l 1
 350 219 l 1
 382 159 l 1
 386 140 l 1
 386 116 l 1
 382 97 l 1
 357 48 l 1
 347 35 l 1
 333 27 l 1
 259 2 l 1
 172 0 l 1
 85 27 l 1
 71 35 l 1
 61 48 l 1
 37 97 l 1
 32 113 l 1
 34 129 l 1
 42 143 l 1
 55 153 l 1
 71 158 l 1
 87 156 l 1
 102 147 l 1
 112 134 l 1
 129 101 l 1
 179 84 l 1
 239 84 l 1
 290 101 l 1
 302 130 l 1
 289 158 l 1
 257 174 l 1
 140 197 l 1
 80 226 l 1
 69 233 l 1
 37 294 l 1
 32 312 l 1
 37 331 l 1
 61 380 l 1
 71 393 l 1
 85 401 l 1
 159 426 l 1
 246 428 l 1
 333 401 l 1
 347 393 l 1
 357 380 l 1
EndSplineSet
EndChar

StartChar: t
Encoding: 116 116 73
Width: 296
VWidth: 0
Flags: W
HStem: 0 84<207 262> 344 84<33 81 165 237> 580 20G<107 139>
VStem: 81 84<147 344 428 574>
LayerCount: 2
Back
Fore
SplineSet
81 428 m 1
 81 558 l 1
 84 574 l 1
 93 588 l 1
 107 597 l 1
 123 600 l 1
 139 597 l 1
 153 588 l 1
 162 574 l 1
 165 558 l 1
 165 428 l 1
 221 428 l 1
 237 425 l 1
 251 416 l 1
 260 402 l 1
 263 386 l 1
 260 370 l 1
 251 356 l 1
 237 347 l 1
 221 344 l 1
 165 344 l 1
 165 147 l 1
 182 96 l 1
 207 84 l 1
 246 84 l 1
 262 81 l 1
 276 72 l 1
 285 58 l 1
 288 42 l 1
 285 26 l 1
 276 12 l 1
 262 3 l 1
 246 0 l 1
 197 0 l 1
 178 4 l 1
 129 29 l 1
 116 39 l 1
 108 53 l 1
 81 140 l 1
 81 344 l 1
 49 344 l 1
 33 347 l 1
 20 356 l 1
 10 370 l 1
 7 386 l 1
 10 402 l 1
 20 416 l 1
 33 425 l 1
 49 428 l 1
 81 428 l 1
EndSplineSet
EndChar

StartChar: u
Encoding: 117 117 74
Width: 467
VWidth: 0
Flags: W
HStem: 0 84<182 236> 408 20G<82 114 352 385>
VStem: 56 84<147 402> 326 84<26 39 158 402>
LayerCount: 2
Back
Fore
SplineSet
56 140 m 1
 56 386 l 1
 59 402 l 1
 68 416 l 1
 82 425 l 1
 98 428 l 1
 114 425 l 1
 128 416 l 1
 137 402 l 1
 140 386 l 1
 140 147 l 1
 157 96 l 1
 182 84 l 1
 236 84 l 1
 270 101 l 1
 326 158 l 1
 326 386 l 1
 330 402 l 1
 339 416 l 1
 352 425 l 1
 368 428 l 1
 385 425 l 1
 398 416 l 1
 407 402 l 1
 410 386 l 1
 410 42 l 1
 407 26 l 1
 398 12 l 1
 385 3 l 1
 368 0 l 1
 352 3 l 1
 339 12 l 1
 330 26 l 1
 327 39 l 1
 313 29 l 1
 264 4 l 1
 246 0 l 1
 172 0 l 1
 153 4 l 1
 104 29 l 1
 91 39 l 1
 83 53 l 1
 56 140 l 1
EndSplineSet
EndChar

StartChar: v
Encoding: 118 118 75
Width: 393
VWidth: 0
Flags: W
HStem: 0 21G<180 213> 408 20G<32 64 328 360>
LayerCount: 2
Back
Fore
SplineSet
196 149 m 1
 305 403 l 1
 314 416 l 1
 328 425 l 1
 344 428 l 1
 360 425 l 1
 373 415 l 1
 382 402 l 1
 385 385 l 1
 382 369 l 1
 235 25 l 1
 225 12 l 1
 213 3 l 1
 195 0 l 1
 180 3 l 1
 167 12 l 1
 157 25 l 1
 10 369 l 1
 7 385 l 1
 10 402 l 1
 19 415 l 1
 32 425 l 1
 48 428 l 1
 64 425 l 1
 78 416 l 1
 87 403 l 1
 196 149 l 1
EndSplineSet
EndChar

StartChar: w
Encoding: 119 119 76
Width: 539
VWidth: 0
Flags: W
HStem: 0 21G<150 191 356 388> 408 20G<61 93 249 281 445 477>
LayerCount: 2
Back
Fore
SplineSet
171 195 m 1
 229 398 l 1
 236 412 l 1
 249 423 l 1
 264 428 l 1
 281 426 l 1
 295 419 l 1
 306 406 l 1
 367 195 l 1
 425 398 l 1
 433 412 l 1
 445 423 l 1
 461 428 l 1
 477 426 l 1
 492 419 l 1
 502 406 l 1
 507 391 l 1
 506 374 l 1
 408 30 l 1
 400 16 l 1
 388 5 l 1
 372 0 l 1
 356 2 l 1
 341 9 l 1
 331 22 l 1
 269 233 l 1
 207 22 l 1
 191 5 l 1
 176 0 l 1
 150 5 l 1
 138 16 l 1
 130 30 l 1
 32 374 l 1
 31 391 l 1
 36 406 l 1
 46 419 l 1
 61 426 l 1
 77 428 l 1
 93 423 l 1
 105 412 l 1
 113 398 l 1
 171 195 l 1
EndSplineSet
EndChar

StartChar: x
Encoding: 120 120 77
Width: 418
VWidth: 0
Flags: W
HStem: 0 21G<63 95 324 356> 408 20G<63 95 324 356>
LayerCount: 2
Back
Fore
SplineSet
41 68 m 1
 156 214 l 1
 41 360 l 1
 34 375 l 1
 32 391 l 1
 38 407 l 1
 48 419 l 1
 63 426 l 1
 79 428 l 1
 95 423 l 1
 107 412 l 1
 209 282 l 1
 311 412 l 1
 324 423 l 1
 339 428 l 1
 356 426 l 1
 370 419 l 1
 381 407 l 1
 386 391 l 1
 385 375 l 1
 377 360 l 1
 263 214 l 1
 377 68 l 1
 385 53 l 1
 386 37 l 1
 381 21 l 1
 370 9 l 1
 356 2 l 1
 339 0 l 1
 324 5 l 1
 311 16 l 1
 209 146 l 1
 107 16 l 1
 95 5 l 1
 79 0 l 1
 63 2 l 1
 48 9 l 1
 38 21 l 1
 32 37 l 1
 34 53 l 1
 41 68 l 1
EndSplineSet
EndChar

StartChar: y
Encoding: 121 121 78
Width: 394
VWidth: 0
Flags: W
HStem: -172 21G<9 68> 408 20G<33 65 329 361>
LayerCount: 2
Back
Fore
SplineSet
151 43 m 1
 11 369 l 1
 8 385 l 1
 11 402 l 1
 20 415 l 1
 33 425 l 1
 49 428 l 1
 65 425 l 1
 79 416 l 1
 88 403 l 1
 197 149 l 1
 306 403 l 1
 315 416 l 1
 329 425 l 1
 345 428 l 1
 361 425 l 1
 374 415 l 1
 383 402 l 1
 386 385 l 1
 383 369 l 1
 236 25 l 1
 185 -75 l 1
 128 -135 l 1
 68 -168 l 1
 50 -172 l 1
 25 -172 l 1
 9 -169 l 1
 -5 -160 l 1
 -14 -146 l 1
 -17 -130 l 1
 -14 -114 l 1
 -5 -100 l 1
 9 -91 l 1
 40 -88 l 1
 74 -71 l 1
 113 -31 l 1
 151 43 l 1
EndSplineSet
EndChar

StartChar: z
Encoding: 122 122 79
Width: 418
VWidth: 0
Flags: W
HStem: 0 84<161 361> 344 84<58 258>
LayerCount: 2
Back
Fore
SplineSet
33 40 m 1
 34 53 l 1
 41 68 l 1
 258 344 l 1
 74 344 l 1
 58 347 l 1
 44 356 l 1
 35 370 l 1
 32 386 l 1
 35 402 l 1
 44 416 l 1
 58 425 l 1
 74 428 l 1
 344 428 l 1
 361 425 l 1
 374 416 l 1
 381 407 l 1
 386 391 l 1
 385 375 l 1
 377 360 l 1
 161 84 l 1
 344 84 l 1
 361 81 l 1
 374 72 l 1
 383 58 l 1
 386 42 l 1
 383 26 l 1
 374 12 l 1
 361 3 l 1
 344 0 l 1
 74 0 l 1
 58 3 l 1
 44 12 l 1
 35 26 l 1
 33 40 l 1
EndSplineSet
EndChar

StartChar: bar
Encoding: 124 124 80
Width: 196
VWidth: 0
Flags: W
HStem: -172 21G<82 114>
VStem: 56 84<-146 672>
LayerCount: 2
Back
Fore
SplineSet
56 -130 m 1
 56 656 l 1
 59 672 l 1
 68 686 l 1
 82 695 l 1
 98 698 l 1
 114 695 l 1
 128 686 l 1
 137 672 l 1
 140 656 l 1
 140 -130 l 1
 137 -146 l 1
 128 -160 l 1
 114 -169 l 1
 98 -172 l 1
 82 -169 l 1
 68 -160 l 1
 59 -146 l 1
 56 -130 l 1
EndSplineSet
EndChar

StartChar: degree
Encoding: 176 176 81
Width: 343
VWidth: 0
Flags: W
HStem: 319 84<156 186> 516 84<156 186>
VStem: 31 84<445 474> 227 84<445 474>
LayerCount: 2
Back
Fore
SplineSet
79 571 m 1
 130 597 l 1
 143 600 l 1
 196 600 l 1
 214 596 l 1
 274 563 l 1
 307 503 l 1
 311 484 l 1
 311 435 l 1
 307 416 l 1
 274 356 l 1
 214 324 l 1
 196 319 l 1
 146 319 l 1
 128 324 l 1
 68 356 l 1
 35 416 l 1
 31 435 l 1
 31 484 l 1
 35 503 l 1
 60 552 l 1
 68 563 l 1
 79 571 l 1
156 516 m 1
 129 502 l 1
 115 474 l 1
 115 445 l 1
 129 417 l 1
 156 403 l 1
 186 403 l 1
 213 417 l 1
 227 445 l 1
 227 474 l 1
 213 502 l 1
 186 516 l 1
 156 516 l 1
EndSplineSet
EndChar

StartChar: periodcentered
Encoding: 183 183 82
Width: 247
VWidth: 0
Flags: W
HStem: 200 127
VStem: 56 134
LayerCount: 2
Back
Fore
SplineSet
69 293 m 1
 93 317 l 1
 107 327 l 1
 123 330 l 1
 139 327 l 1
 153 317 l 1
 177 293 l 1
 186 279 l 1
 190 263 l 1
 186 247 l 1
 177 233 l 1
 153 209 l 1
 139 200 l 1
 123 197 l 1
 107 200 l 1
 93 209 l 1
 69 233 l 1
 60 247 l 1
 56 263 l 1
 60 279 l 1
 69 293 l 1
EndSplineSet
EndChar

StartChar: multiply
Encoding: 215 215 83
Width: 540
VWidth: 0
Flags: W
LayerCount: 2
Back
Fore
SplineSet
68 121 m 1
 211 263 l 1
 68 405 l 1
 59 419 l 1
 56 435 l 1
 59 451 l 1
 68 465 l 1
 82 474 l 1
 98 477 l 1
 114 474 l 1
 128 465 l 1
 270 323 l 1
 412 465 l 1
 426 474 l 1
 442 477 l 1
 458 474 l 1
 472 465 l 1
 481 451 l 1
 484 435 l 1
 481 419 l 1
 472 405 l 1
 329 263 l 1
 472 121 l 1
 481 107 l 1
 484 91 l 1
 481 75 l 1
 472 61 l 1
 458 52 l 1
 442 49 l 1
 426 52 l 1
 412 61 l 1
 270 204 l 1
 128 61 l 1
 114 52 l 1
 98 49 l 1
 82 52 l 1
 68 61 l 1
 59 75 l 1
 56 91 l 1
 59 107 l 1
 68 121 l 1
EndSplineSet
EndChar

StartChar: glyph84
Encoding: 256 8216 84
Width: 247
VWidth: 0
Flags: W
HStem: 372 225 580 20G<131 164>
VStem: 56 134
LayerCount: 2
Back
Fore
SplineSet
93 563 m 1xa0
 118 588 l 1
 131 597 l 1xa0
 148 600 l 1x60
 164 597 l 1
 177 588 l 1
 186 574 l 1
 190 558 l 1
 186 542 l 1
 177 528 l 1
 158 509 l 1
 149 492 l 1
 177 465 l 1
 186 451 l 1
 190 435 l 1
 186 419 l 1
 177 405 l 1
 153 381 l 1
 139 372 l 1
 123 369 l 1
 107 372 l 1
 93 381 l 1
 69 405 l 1
 60 419 l 1
 56 435 l 1
 56 484 l 1
 61 503 l 1
 93 563 l 1xa0
EndSplineSet
EndChar

StartChar: glyph85
Encoding: 257 8217 85
Width: 247
VWidth: 0
Flags: W
HStem: 372 225 580 20G<107 139>
VStem: 56 134
LayerCount: 2
Back
Fore
SplineSet
97 477 m 1xa0
 69 504 l 1
 60 517 l 1
 56 533 l 1
 60 550 l 1
 69 563 l 1
 93 588 l 1
 107 597 l 1xa0
 123 600 l 1x60
 139 597 l 1
 153 588 l 1
 177 563 l 1
 186 550 l 1
 190 533 l 1
 190 484 l 1
 185 466 l 1
 153 405 l 1
 128 381 l 1
 115 372 l 1
 98 369 l 1
 82 372 l 1
 69 381 l 1
 60 394 l 1
 56 411 l 1
 60 427 l 1
 69 440 l 1
 88 460 l 1
 97 477 l 1xa0
EndSplineSet
EndChar

StartChar: glyph86
Encoding: 258 8594 86
Width: 637
VWidth: 0
Flags: W
HStem: 221 84<81 413> 408 20G<376 408>
LayerCount: 2
Back
Fore
SplineSet
413 305 m 1
 362 356 l 1
 353 370 l 1
 350 386 l 1
 353 402 l 1
 362 416 l 1
 376 425 l 1
 392 428 l 1
 408 425 l 1
 421 416 l 1
 492 345 l 1
 569 293 l 1
 580 271 l 1
 580 255 l 1
 569 233 l 1
 492 181 l 1
 421 111 l 1
 408 101 l 1
 392 98 l 1
 376 101 l 1
 362 111 l 1
 353 124 l 1
 350 140 l 1
 353 156 l 1
 362 170 l 1
 413 221 l 1
 97 221 l 1
 81 224 l 1
 67 233 l 1
 58 247 l 1
 55 263 l 1
 58 279 l 1
 67 293 l 1
 81 302 l 1
 97 305 l 1
 413 305 l 1
EndSplineSet
EndChar

StartChar: glyph87
Encoding: 259 8977 87
Width: 539
VWidth: 0
Flags: W
HStem: 0 21G<29 61 471 509> 49 84<172 366> 393 84<172 366>
VStem: 55 84<166.682 360> 399 84<166.682 360>
LayerCount: 2
Back
Fore
SplineSet
6 484 m 1
 8 498 l 1
 16 512 l 1
 29 522 l 1
 45 526 l 1
 61 524 l 1
 112 499 l 1
 200 477 l 1
 338 477 l 1
 426 499 l 1
 477 524 l 1
 493 526 l 1
 503 524 l 1
 518 516 l 1
 528 503 l 1
 532 481 l 1
 528 466 l 1
 505 420 l 1
 483 332 l 1
 483 195 l 1
 505 106 l 1
 530 55 l 1
 532 39 l 1
 528 23 l 1
 522 14 l 1
 509 4 l 1
 487 0 l 1
 471 4 l 1
 426 27 l 1
 338 49 l 1
 200 49 l 1
 112 27 l 1
 61 2 l 1
 45 0 l 1
 29 4 l 1
 20 10 l 1
 10 23 l 1
 6 45 l 1
 10 61 l 1
 33 106 l 1
 55 195 l 1
 55 332 l 1
 33 420 l 1
 10 466 l 1
 6 484 l 1
122 410 m 1
 139 337 l 1
 139 189 l 1
 122 116 l 1
 195 133 l 1
 343 133 l 1
 416 116 l 1
 399 189 l 1
 399 337 l 1
 416 410 l 1
 343 393 l 1
 195 393 l 1
 122 410 l 1
EndSplineSet
EndChar

